<?xml version="1.0" encoding="utf-8"?>
<!-- Generator: Adobe Illustrator 18.1.1, SVG Export Plug-In . SVG Version: 6.00 Build 0)  -->
<!DOCTYPE svg PUBLIC "-//W3C//DTD SVG 1.1//EN" "http://www.w3.org/Graphics/SVG/1.1/DTD/svg11.dtd">
<svg version="1.1" id="Layer_1" xmlns="http://www.w3.org/2000/svg" xmlns:xlink="http://www.w3.org/1999/xlink" x="0px" y="0px"
	 viewBox="0 0 1200 1200" enable-background="new 0 0 1200 1200" xml:space="preserve">
<g>
	<g>
		<path fill-rule="evenodd" clip-rule="evenodd" d="M550.7,119.1c258.1-22.8,433.1,124.6,502.5,306.4
			c118.8,311-96.6,584-330.9,643.5c-98.3,25-203.2,16.2-294.2-18.4C272.4,991.4,148,863.1,118.7,673.7
			c-26.1-168.6,42.5-302.3,107.2-380c36.8-44.1,75.7-79.8,134.8-113.4C415,149.5,473.6,125.9,550.7,119.1z M268.8,312.1
			c-42.1,48.7-76.6,108.8-95,186.9c-62.3,264,113,454.8,288,514.8c152.2,52.2,327.9,16.8,447.4-101.1
			c65.1-64.2,120.3-153.2,128.7-278.9c10.6-157.8-55.2-268.4-122.6-337.1c-73.8-75.2-185.6-140.5-334-131.8
			C445.7,173,339.5,230.3,268.8,312.1z"/>
		<path fill-rule="evenodd" clip-rule="evenodd" d="M789.8,915.8c-49.6,27.6-91.9,47.6-153.2,52.1
			c-250.7,18.2-419.3-174.3-404.5-395.3c11.7-175,141.5-302.8,303.4-337.1c2,0,4.1,0,6.1,0C446.4,300,369.5,382.2,357.7,517.4
			C336.4,762.1,534.1,950.3,789.8,915.8z"/>
		<path fill-rule="evenodd" clip-rule="evenodd" d="M673.3,238.6c-11.9,42.2-63.4,71.4-95,104.2c26.4-3.3,50.5-35.3,79.7-46
			c-15.4,36.7-49.5,54.6-73.5,82.7c25.4-11.4,43.5-30.1,70.5-39.8c-12.5,28.3-36.8,44.9-55.2,67.4c10.3,0.1,16.2-4.2,21.5-9.2
			c-8.8,25.1-22.9,73.5,18.4,85.8c-11.7,21.2,18.6,7,12.2,30.6c97.3-4.9,186.1-44.7,272.7-70.5c6.8,11.6,17.3,19.5,30.6,24.5
			c1.6,17.9-10.5,22.2-6.1,42.9c-92.7,32-176.8,72.4-254.3,119.5c5.8,26.2-0.8,31.1,3.1,61.3c0.3,14,20.3,8.3,15.3,27.6
			c14.9,1.4,30.2,2.5,33.7,15.3c-16.7,1.7-28.7,8.1-49,6.1c25.9,14,79.2,0.4,101.1,18.4c-19,11.7-55.7,5.6-79.7,12.3
			c31.7,10.2,77.9,5.9,110.3,15.3c-21.8,15-59.6,13.9-95,15.3c43.7,12.5,103.3,9,147.1,21.4c-105.7,26.5-258.9,12.4-321.7-42.9
			c20.9-27.7,51-77.3,21.4-119.5c-39,9-99.6-3.6-104.2,39.8c-56.5-53.2,15.1-129,64.3-144c0-56.2-41.3-71-85.8-82.7
			C490.8,358.4,587.8,304.3,673.3,238.6z"/>
	</g>
</g>
</svg>
