<?xml version="1.0" encoding="utf-8"?>
<!-- Generator: Adobe Illustrator 18.1.1, SVG Export Plug-In . SVG Version: 6.00 Build 0)  -->
<!DOCTYPE svg PUBLIC "-//W3C//DTD SVG 1.1//EN" "http://www.w3.org/Graphics/SVG/1.1/DTD/svg11.dtd">
<svg version="1.1" id="Layer_1" xmlns="http://www.w3.org/2000/svg" xmlns:xlink="http://www.w3.org/1999/xlink" x="0px" y="0px"
	 viewBox="0 0 1200 1200" enable-background="new 0 0 1200 1200" xml:space="preserve">
<g>
	<path d="M576.4,335.5c1.3-3.2,2.1-7,2.4-11.3C578.2,328.3,577.5,332.1,576.4,335.5z"/>
	<path d="M595.5,442.4c0.6-2.9,4.3-2.7,3-7.6c-1.9-2.1-7.2-2.1-9.1,0C589,439.8,591.2,442.1,595.5,442.4z"/>
	<path d="M556,412c0,1.5,0,3,0,4.6C567,424.4,567,404.2,556,412z"/>
	<path d="M542.3,316.4c-1.6,9.2,3.4,11.8,12.2,10.6C563.6,319.1,549.8,307.3,542.3,316.4z M546.9,325.5c-3-4.2-3-6.5,0-10.6
		C558.5,312.1,558.5,328.3,546.9,325.5z"/>
	<path d="M501.3,549.9c3-7.5,2.5-18.6,6.1-25.5C501.1,528.6,501.5,539.5,501.3,549.9z"/>
	<path d="M612.1,319.4c-8.3-3.2-24.8-1.6-33.4,0c0.1,1.7,0.1,3.2,0,4.8c0-0.1,0-0.1,0-0.2C587.8,320.4,599.1,319,612.1,319.4z"/>
	<path d="M501.3,549.9c-0.1,0.1-0.1,0.3-0.2,0.4c0.1-0.1,0.1-0.1,0.2-0.1C501.3,550.1,501.3,550,501.3,549.9z"/>
	<path d="M556,445.4c-0.6-9.2,0.4-16.8,1.5-24.3c-11,1.2-16.1,8.2-27.3,9.1c-4.9-6.8-3.4-19.9-6.1-28.8c-10.9,0.8-14.8,8.5-25.8,9.1
		c-4.3-5.8-3.7-16.5-7.6-22.8c-3.1,5.5-3.4,13.9-6.1,19.7c25.3,17.2,52.9,32.1,80.5,47.1c5.7-1.4,14.8-7.4,13.7-10.6
		C573.9,446.6,558.9,445.6,556,445.4z"/>
	<path d="M217,46v800.8l381.6,307.4L983,846.8V46H217z M741.2,202.5c-2.4-21.9-23.9-24.7-30.4-42.5c7.6,1.9,34.4,25,41,6.1
		c6.8-19.5-13.3-37.1-24.3-48.6c46.9,13.1,62.4,108.6,22.8,142.7c-6.1-1-13.2-1-18.2-3c9.1-31.7-15.4-42-33.4-51.6
		C708.5,197.1,733.4,221.9,741.2,202.5z M709.3,216.1c3,10.6-5.6,22.9-3,37.9c-3,0-6.1,0-9.1,0C693.9,240,702.8,225.3,709.3,216.1z
		 M543.8,750.6c-5.3,0.3-5-5.1-9.1-6.1c-2.5,3-5.5,5.6-6.1,10.6c-8.9-3.3-18-6.3-27.3-9.1c6.4-7.3,17.8-9.6,24.3-16.7
		c25.1-1.7,55.4,1.7,68.3-12.1c-10.2-24.8-33.1-59.6-13.7-91.1c20.9,1.7,17.4,18.3,33.4,24.3c-0.6,15.8,0.2,30.2,4.6,41
		c-7.7,14.9-2.7,31,4.6,42.5C599.7,747.8,562.8,731.8,543.8,750.6z M601.5,636.7c5.9-0.3,7.9,3.3,12.1,4.6c0.4,2.4-1.4,2.6-1.5,4.6
		C607.5,643.9,600.8,644,601.5,636.7z M873.3,190.4c-3.9,40.4-44.4,80.4-94.1,86.5c-17.3,2.1-35.6,0.1-54.2-3
		c1.9,0.4,3.7,0.9,5.7,1.5c-26.9,29-94.4,2.3-135.1,13.7c-1.4-8.4,3.3-10.8,6.1-15.2c10.7,0.6,19.7-0.6,28.8-1.5
		c1.8-5.3,2.9-11.3,12.1-9.1c1.2,3.4,3.2,5.9,3,10.6c13.4,3.3,28.6,4.8,45.5,4.6c6.7-0.4-0.8-8,3-9.1c5.6,0.4,13-0.9,12.1,6.1
		c4.6-2.4,9.1-2.9,13.8-2.4c-27.5-5-55.4-11.9-80.6-11.3c-27.6,0.7-61.5,16.7-36.4,38c-8.7-0.1-16.5,0.7-21.3,4.6
		c23-9.1,36.5,12.9,60.7,12.1c-15.9,3.8-25,14.5-47.1,12.1c2.7,3.9,10,3.2,15.2,4.6c3.6,53.7-21.1,79.1-42.5,107.8
		c6.1,0.5,8.4-2.7,15.2-1.5c4.5-1.6,2.3-9.8,7.6-10.6c8,0.1,12,4.2,10.6,13.7c-16.7,4-30.6,10.9-39.5,22.8
		c16.7,59.1,78.1,74.7,116.9,112.3c26.5,25.7,39.4,56.7,48.6,101.7c4.3-0.3,10.4,1.3,10.6-3c2.6,10-21,11.8-21.3-1.5
		c-5.4-0.9,0,9.1-6.1,7.6c-2-5.6-3.4-11.7-3-19.7c-1-5.2-5.1,6.7-6.1,1.5c0.6-9,6.5-12.8,4.6-24.3c-4.3,31.4-34.7,55.3-31.9,91.1
		c1.5,18.4,11.5,26.6,22.8,38c-8.6,27.1-18.5,60-13.7,95.6c-2.4,3.1-7.6,3.5-13.7,3c-2.6,3.4-3.7,8.5-3,15.2
		c-8.7-1.1-13.6,1.6-21.3,1.5c1.2-6.9,4.4-11.8,6.1-18.2c15.8-5.6,24.3-59.9,16.7-89.6c-2.3-9.2-15.4-21.5-22.8-31.9
		c-13.8-19.5-26.6-39.6-28.8-72.9c-1.4-20.2,1.9-39.2-4.6-59.2c-3.2,5.8,3.2,14.9,1.5,24.3c-35.2-14.4-78.3-34-109.3-57.7
		c0.8,4.8,4.5,6.7,4.6,12.1c-12.2-4.5-18.2-15.2-25.8-24.3c-4.8,2.1,2.1,7.5-1.5,9.1c-7.1-6.6-13.7-13.6-16.7-24.3
		c-4.1,2,0,12.1-6.1,12.1c-3.9-7-5.2-23.8-4.6-30.4c14,6.2,24.9,15.6,36.4,24.3c5.6-0.3,8.6-3.3,10.4-7.4
		c-11.7,10-31.4-10.2-46.9-18.4c-16.1-8.5-28.7-14.9-39.5-21.3c-10.3,19.4,4.4,51.8-1.5,66.8c2.1,4.5,7.4,5.7,7.6,12.1
		c-6.3,7.3-9.9,17.4-19.7,21.3c-7.3-39.8-3.7-75-7.6-119.9c12.1-13.4,19.3-1.7,28.8,4.6c13.3,8.8,33.8,13.5,45.5,19.7
		c3.7-10.5,3.6-24.8,12.1-30.4c-6.7,0.9-12.3,16-13.7,27.3c-8.7-3-16.6-6.7-24.3-10.6c0-4-0.6-8.7,1.5-10.6
		c-3.3-4.4-3.8,12.2-9.1,6.1c0.3-5.8,1.3-10.8,3-15.2c-4.7,0.8-2.3,8.8-4.6,12.1c-16.7,1-18.1-13.3-25.8-21.2
		c-19.9,9.4-37.3,21.4-45.5,42.5c-1.8,1.7-5.4,1.7-9.1,1.5c-3.1,2.5,0.1,11.2-3,13.7c-13.2-2.1-18.5,3.8-30.4,3
		c6.8-11.9,16.3-21.1,22.8-33.4c26.7-1.8,42.7-55.3,69.8-50.1c13.7,2.6,13.6,23,25.8,30.4c3.8-3.3,5.3-8.8,9.1-12.1
		c-1-4.5-3.2,1.4-6.1,0c3.5-10.2,10.8-16.5,16.7-24.3c-3.8-0.2-6.3,0.8-7.6,3c-1.5-7,11.5-12.7,16.7-18.2c0.6-1.2-9.5-0.5-10.6,1.5
		c-0.4-7,14.6-11.7,22.8-15.2c2.1-17,10.9-27.2,3-42.5c3.8-2.5,6.8-6,12.1-3c6.1,6.8-3.6,15,4.5,21.3c15.9-8.9,28.2-21.4,41-33.4
		c21.2,1.5,32.3-7,37.1-21.9c-11.6,28.2-61.8,16.3-91.7,31c-1-8.6,6.8-8.4,7.6-15.2c-6.8,1.3-12.5,3.7-21.3,3
		c-2-4.6-1.5-11.6-1.5-18.2c45.3-4.3,57.9-41.2,106.3-42.5c1.1-5.5,0.8-10.4-0.6-14.8c1.1,4.5,1.8,10.9-2.4,11.8
		c-24.4-20.7-63.4-26.6-69.8-65.3c15,25.3,41.6,39,70.9,49.9c-9.6-21.3-41.7-33.3-34.5-66.6c8.8,25.6,21.7,47.1,47.1,56.2
		c13.4-5.3,25.1-12.3,41-15.2c-3.4-14.4-12.7-35.8-22.8-48.6c13.8,10,34.6,29.1,30.4,47.1c52.5,9.7,22.8-61.6,10.6-78.9
		c17.6,12.6,35.6,41.3,31.9,82c24.2,6.2,51.3,9.4,78.9,12.1c15.9-16.5,16.5-48.2,39.5-57.7c-8.1,15.1-20.5,32.6-15.2,56.2
		c42.6,3.1,32.6-51.5,19.7-71.3c11.4,2.6,13.1,23.7,31.9,21.3c6.5-0.9,10.6-5.2,12.1-9.1c8.2-21.4-27.2-37.8-34.9-51.6
		c9.2,4,18.1,20,34.9,13.7c23.2-8.7-6.5-50.3-15.2-62.2C846.2,115.7,877.2,149.5,873.3,190.4z M528.7,273.9c2.2,14,26.4,6,28.8,19.7
		c-10.3-1.7-11.4,5.8-19.7,6.1C532,294.6,525,283.5,528.7,273.9z"/>
	<path d="M563.6,457.6c-27.9-14.1-53.6-30.4-80.5-45.5C505.7,430.4,535.7,449.5,563.6,457.6z"/>
	<path d="M493.7,378.6c0.4-4.9-1.8-7.3-6.1-7.6c-0.6,2.9-4.3,2.7-3,7.6C486.6,380.7,491.8,380.7,493.7,378.6z"/>
	<path d="M531.7,395.3c0.6-7.7-11.2-7.7-10.6,0C524,398.9,528.8,398.9,531.7,395.3z"/>
</g>
</svg>
