<?xml version="1.0" encoding="utf-8"?>
<!-- Generator: Adobe Illustrator 18.1.1, SVG Export Plug-In . SVG Version: 6.00 Build 0)  -->
<!DOCTYPE svg PUBLIC "-//W3C//DTD SVG 1.1//EN" "http://www.w3.org/Graphics/SVG/1.1/DTD/svg11.dtd">
<svg version="1.1" id="Layer_1" xmlns="http://www.w3.org/2000/svg" xmlns:xlink="http://www.w3.org/1999/xlink" x="0px" y="0px"
	 viewBox="0 0 1200 1200" enable-background="new 0 0 1200 1200" xml:space="preserve">
<g>
	<g id="_x35_1ymHT_1_">
		<g>
			<path fill-rule="evenodd" clip-rule="evenodd" d="M789.3,57.8c67.7,18.9,90,156.7,32.9,205.9c-8.8-1.5-19.1-1.4-26.3-4.4
				c13.1-45.8-22.3-60.6-48.2-74.5c14.2-12.3,50.1,23.6,61.3-4.4c-3.5-31.6-34.5-35.6-43.8-61.3c11,2.7,49.6,36.1,59.1,8.8
				C834.1,99.8,805.1,74.4,789.3,57.8z"/>
			<path fill-rule="evenodd" clip-rule="evenodd" d="M763,200.2c4.4,15.3-8.1,32.8-4.4,54.8c-4.4,0-8.8,0-13.1,0
				C740.7,234.6,753.5,213.6,763,200.2z"/>
			<path fill-rule="evenodd" clip-rule="evenodd" d="M565.8,307.5c-35.2-29.8-91.5-38.4-100.8-94.2c21.8,36.7,60.4,56.5,103,72.3
				C569.5,290.8,573.8,305.9,565.8,307.5z"/>
			<path fill-rule="evenodd" clip-rule="evenodd" d="M666.6,268.1c1.7,4.9,4.6,8.5,4.4,15.3c19.4,4.7,41.3,6.9,65.7,6.6
				c9.7-0.6-1.2-11.6,4.4-13.1c8.1,0.6,18.8-1.2,17.5,8.8c11.4-6,22.7-3.7,35.1,0c-38.8,41.8-136.2,3.3-195,19.7
				c-2-12.2,4.8-15.7,8.8-21.9c15.5,0.9,28.4-0.8,41.6-2.2C651.6,273.5,653.2,264.9,666.6,268.1z"/>
			<path fill-rule="evenodd" clip-rule="evenodd" d="M502.3,283.4c3.1,20.2,38.1,8.7,41.6,28.5c-14.9-2.5-16.4,8.4-28.5,8.8
				C507,313.3,497,297.3,502.3,283.4z"/>
			<path fill-rule="evenodd" clip-rule="evenodd" d="M528.5,357.9c-4.3-6-4.3-9.3,0-15.3C545.3,338.6,545.3,361.9,528.5,357.9z"/>
			<path fill-rule="evenodd" clip-rule="evenodd" d="M624.9,826.7c-0.9,22.8,0.3,43.5,6.6,59.2c-11,21.5-3.9,44.7,6.6,61.3
				c-33.3,20.1-86.6-2.9-113.9,24.1c-7.7,0.4-7.2-7.4-13.1-8.8c-3.6,4.4-7.9,8.1-8.8,15.3c-12.8-4.7-26-9.1-39.4-13.1
				c9.2-10.5,25.6-13.8,35-24.1c36.3-2.4,79.9,2.5,98.6-17.5c-14.7-35.9-47.7-86-19.7-131.4C606.9,794.1,601.9,818.1,624.9,826.7z"
				/>
			<path fill-rule="evenodd" clip-rule="evenodd" d="M607.4,807c8.5-0.5,11.4,4.7,17.5,6.6c0.6,3.5-2.1,3.8-2.2,6.6
				C616,817.4,606.4,817.6,607.4,807z"/>
			<path fill-rule="evenodd" clip-rule="evenodd" d="M609.6,320.7c-12.6-0.2-23.8,1.1-30.7,6.6c33.1-13.1,52.7,18.6,87.6,17.5
				c-22.9,5.5-36.1,20.9-67.9,17.5c3.8,5.7,14.4,4.6,21.9,6.6c5.2,77.5-30.4,114.2-61.3,155.5c8.8,0.7,12.2-3.9,21.9-2.2
				c6.5-2.3,3.4-14.2,11-15.3c11.6,0.1,17.3,6.1,15.3,19.7c-24.1,5.8-44.1,15.8-57,32.9c24.1,85.3,112.7,107.9,168.7,162.1
				c38.3,37.1,56.8,81.8,70.1,146.8c6.2-0.4,15,1.9,15.3-4.4c3.7,14.4-30.3,17-30.7-2.2c-7.9-1.3-0.1,13.1-8.8,11
				c-2.9-8.1-5-17-4.4-28.5c-1.5-7.5-7.3,9.7-8.8,2.2c0.8-13,9.3-18.4,6.6-35.1c-6.2,45.3-50.1,79.8-46,131.4
				c2.1,26.6,16.6,38.4,32.9,54.8c-12.4,39.1-26.7,86.6-19.7,138c-3.5,4.5-11,5.1-19.7,4.4c-3.8,5-5.3,12.2-4.4,21.9
				c-12.5-1.6-19.6,2.3-30.7,2.2c1.8-9.9,6.3-17,8.8-26.3c22.8-8.1,35-86.4,24.1-129.3c-3.4-13.2-22.3-31.1-32.9-46
				c-19.9-28.2-38.4-57.1-41.6-105.2c-2-29.2,2.7-56.6-6.6-85.4c-4.6,8.4,4.7,21.6,2.2,35.1c-50.9-20.7-113.1-49-157.7-83.2
				c1.1,6.9,6.4,9.6,6.6,17.5c-17.7-6.4-26.3-21.9-37.3-35.1c-6.9,3.1,3,10.8-2.2,13.1c-10.2-9.5-19.8-19.7-24.1-35.1
				c-5.9,2.9,0,17.5-8.8,17.5c-5.6-10.2-7.5-34.3-6.6-43.8c20.2,9,36,22.4,52.6,35.1c22.7-1.4,15.9-32.3,24.1-48.2
				c-9.1,6.2-8.5,22.2-8.8,37.2c-16.9,15-45.5-14.4-67.9-26.3c-23.2-12.3-41.4-21.6-57-30.7c-14.8,28.1,6.4,74.8-2.2,96.4
				c3.1,6.4,10.7,8.3,11,17.5c-9.1,10.6-14.3,25.1-28.5,30.7c-10.5-57.5-5.4-108.2-11-173.1c17.5-19.3,27.9-2.5,41.6,6.6
				c19.2,12.7,48.8,19.5,65.7,28.5c5.3-15.1,5.1-35.8,17.5-43.8c-9.6,1.3-17.7,23.1-19.7,39.4c-12.5-4.3-23.9-9.7-35.1-15.3
				c0-5.8-0.8-12.5,2.2-15.3c-4.7-6.3-5.4,17.7-13.1,8.8c0.4-8.3,1.9-15.6,4.4-21.9c-6.8,1.2-3.4,12.7-6.6,17.5
				c-24.1,1.5-26.1-19.2-37.2-30.7c-28.7,13.6-53.8,30.9-65.7,61.3c-2.6,2.5-7.7,2.5-13.1,2.2c-4.5,3.6,0.1,16.2-4.4,19.7
				c-19.1-3-26.6,5.5-43.8,4.4c9.8-17.2,23.5-30.5,32.9-48.2c38.6-2.6,61.6-79.8,100.8-72.3c19.7,3.8,19.6,33.3,37.2,43.8
				c5.4-4.8,7.7-12.7,13.1-17.5c-1.4-6.6-4.7,2.1-8.8,0c5-14.7,15.6-23.8,24.1-35.1c-5.4-0.3-9.1,1.1-10.9,4.4
				c-2.1-10.2,16.6-18.4,24.1-26.3c0.9-1.8-13.7-0.8-15.3,2.2c-0.6-10.1,21.1-16.9,32.9-21.9c3-24.6,15.7-39.3,4.4-61.3
				c5.5-3.7,9.8-8.6,17.5-4.4c8.8,9.9-5.1,21.6,6.6,30.7c22.9-12.9,40.7-30.9,59.2-48.2c37.8,2.7,53.4-16.7,57-48.2
				c13.1-5.1,29.3-7.2,48.2-6.6c-12-4.6-35.8-2.3-48.2,0c2.8,70.2-86.1,43.6-135.8,67.9c-1.4-12.4,9.9-12.1,11-21.9
				c-9.8,1.9-18,5.3-30.7,4.4c-2.9-6.6-2.2-16.8-2.2-26.3c65.4-6.1,83.6-59.5,153.4-61.3c10.4-50.5-65.7-62.4-52.6-122.7
				c12.7,37,31.3,68,67.9,81.1c19.3-7.7,36.3-17.8,59.2-21.9c-4.9-20.7-18.4-51.7-32.9-70.1c20,14.5,49.9,42,43.8,67.9
				c75.8,14,32.8-88.9,15.3-113.9c25.3,18.2,51.4,59.6,46,118.3c34.9,8.9,74,13.6,113.9,17.5c23-23.8,23.9-69.6,57-83.3
				c-11.7,21.8-29.5,47.1-21.9,81.1c61.5,4.4,47-74.3,28.5-103c16.5,3.8,18.9,34.2,46,30.7c9.4-1.2,15.3-7.5,17.5-13.1
				c11.9-30.9-39.2-54.6-50.4-74.5c13.3,5.7,26.1,28.8,50.4,19.7c33.5-12.6-9.4-72.6-21.9-89.8c24.4,19.3,69.2,68.1,63.5,127.1
				c-5.6,58.4-64.1,116-135.8,124.9c-64,7.9-138.5-23.5-201.6-21.9C622.3,266.9,573.4,290,609.6,320.7z M522,344.8
				c-2.3,13.2,4.9,17.1,17.5,15.3C552.8,348.6,532.8,331.6,522,344.8z M438.7,434.6c2.8,3,10.3,3,13.2,0c0.6-7.1-2.6-10.5-8.8-11
				C442.2,427.8,436.8,427.6,438.7,434.6z M541.7,531c-0.8-13.2,0.6-24.2,2.2-35.1c-15.8,1.7-23.2,11.8-39.4,13.1
				c-7-9.8-4.8-28.7-8.8-41.6c-15.7,1.1-21.3,12.2-37.2,13.1c-6.2-8.4-5.4-23.8-11-32.9c-4.5,7.9-4.8,20-8.8,28.5
				c36.6,24.8,76.4,46.3,116.1,67.9c8.2-2.1,21.4-10.7,19.7-15.3C567.5,532.7,545.9,531.3,541.7,531z M491.3,458.7
				c4.2,5.2,11.1,5.2,15.3,0C507.4,447.5,490.5,447.5,491.3,458.7z M541.7,482.8c0,2.2,0,4.4,0,6.6
				C557.6,500.7,557.6,471.5,541.7,482.8z M552.7,548.5c-40.2-20.4-77.4-43.9-116.1-65.7C469.1,509.3,512.4,536.9,552.7,548.5z
				 M589.9,515.7c-0.6,7.1,2.6,10.5,8.8,11c0.9-4.2,6.3-4,4.4-11C600.2,512.7,592.7,512.7,589.9,515.7z"/>
		</g>
	</g>
</g>
</svg>
