<?xml version="1.0" encoding="utf-8"?>
<!-- Generator: Adobe Illustrator 18.1.1, SVG Export Plug-In . SVG Version: 6.00 Build 0)  -->
<!DOCTYPE svg PUBLIC "-//W3C//DTD SVG 1.1//EN" "http://www.w3.org/Graphics/SVG/1.1/DTD/svg11.dtd">
<svg version="1.1" id="Layer_1" xmlns="http://www.w3.org/2000/svg" xmlns:xlink="http://www.w3.org/1999/xlink" x="0px" y="0px"
	 viewBox="0 0 1200 1200" enable-background="new 0 0 1200 1200" xml:space="preserve">
<g>
	<path d="M217,42v806.2l381.6,309.5L983,848.2V42H217z M898.9,291.2c3.9,30.7-13,29.1-13,29.1c7.7-1.7,8.7-13.9,8.7-13.9
		c0.3-11.9-12-13.2-12-13.2c-5.4,7.5-14.2,7.3-14.2,7.3c10.3,7.5,5.2,22.2,5.2,22.2c-16.6,44.6-42.1,20.8-42.1,20.8
		c17.3,1.6,19.3-12.5,19.3-12.5c0.4-13.6-13.3-18.1-13.3-18.1c2.9,21.2-13.5,28.8-13.5,28.8v0.6c-12,21.5,6.6,29.8,6.6,29.8
		c-37.8-1.9-24.6-43.7-24.6-43.7c-26.8,0.7-25-13.8-25-13.8c0-15.9,11.6-19.5,11.6-19.5c-2.6,14.1,4.7,16.3,4.7,16.3
		c10.3,0,14.4-13.8,14.4-13.8c1.8-15.7-7.7-25.5-7.7-25.5c-13.1,17.2-26.6,14.2-26.6,14.2c-28.5-4.4-11.3-27.4-11.3-27.4
		c-2.6,20.4,11.7,16.8,11.7,16.8c12.8-6.2,19.3-33.6,19.3-33.6c-84.7-6.2-70.4,86.2-70.4,86.2c1.2,27,12.7,57,12.7,57l-0.2,15.2
		c9.1-32,40-31.9,40-31.9c34.6-0.3,30.9,29.1,30.9,29.1c-2.6,22.4-18.4,22.1-18.4,22.1c10.9-5.4,10.5-15.5,10.5-15.5
		c0.9-14.3-12.7-14.4-12.7-14.4c-19.3,0.6-18.4,17.4-18.4,17.4c-3.2,13.7,13,19.4,13,19.4c-17.1,24.6,10.9,63.4,10.9,63.4
		c-5.3,2.1-8.3,4.2-8.3,4.2c26.1-3.2,34.4,24.4,34.4,24.4c20,5.6,13.8,34.9,13.8,34.9c0,8,9.1,0,9.1,0c-3.9,9-12.7,12-12.7,12
		c-8.3,5.8-1.1,9.7-1.1,9.7c-12.9,8.2-32,5.3-32,5.3C783.8,610.5,746,619,746,619c-37.2,6.1-54.6-14.3-54.6-14.3
		c0-8.9-1.7-9.6-1.7-9.6c-0.9,14.7-10.9,23.5-10.9,23.5c-7.6,6.2-4.4,9.4-4.4,9.4c7.7,16.8,18.7-4.1,18.7-4.1
		c2.9,13.5-9.6,19.7-9.6,19.7c11.1,8.8-1.7,21.2-1.7,21.2c-0.1-13.1-7.4-11.8-7.4-11.8c-8.8,0.6-7.3,9.6-7.3,9.6
		c4.6,29.1,30.8,8.2,30.8,8.2c-1.7,19.7-15.5,23.4-15.5,23.4c0.9,4.9,5.8,3.5,5.8,3.5c21.2-0.2,19.1,18.8,19.1,18.8
		c-16.2-13.6-16.1-3.2-16.1-3.2c-1.1,10.6,11.4,10.8,11.4,10.8c24.6-0.5,24.1,13.2,24.1,13.2c-19.4,2.3-12.7,10.4-12.7,10.4
		c12.9,16.4,23-1.2,23-1.2s2.5,20.6-17.3,27.1c0,0,0.8,17-12.9,21.4c0,0,7.4-19.7-7.1-19.7c0,0-8.8,1.9,0,13.7
		c0,0,4.1,15.3-13.2,26.6c0,0,2.5-15.6-10.7-13.7c0,0,9,21.9-9,29.9c0,0-1.6,15.9-17.8,15.6c0,0,8.5-2.7,8.5-15.6
		c0,0-7.1-2.5-0.8-18.1c0,0-10.1,4.1-11,12.9c0,0,2.5,13.7-14.5,14.3c0,0-6,17.5-17.5,21.4l-0.9,0.6c1,6.6,10.6,9.5,10.6,9.5
		c-19.9,6.3-24.2-18.8-24.2-18.8s-3.2-8.9,7.7-19.1c0,0-10.9,3.3-9.9,19.1v1.6c-1,0.2-3.2,0.2-6.4-0.2c0,0-4.1,7.4,0.1,14.5
		c0,0-16.4-7.7-7.6-21.1c0,0-0.9-2.6-1.2-5.8c0,0-0.3-7,11.9-15.4c0,0-8.6,4.2-10.8,8.1l-0.2,0.2c0,0-8.8,6.6-8.8,16.7
		c0,0-11.8-11,2.2-24.1c0,0-3.3-12.9,40.8-34.5c0,0,15.6-7.9,17-40.6l-4.4,0.5l-0.5-9l-4.7,2.7l-2.2-11l-5.8,2.2l-0.3-8.8
		c0,0-4.7-4.4-8.8,3.6l-0.3-10.4c0,0-6.3-1.2-6.3,2l-0.3-10.8h-3.3l-1.6-3.7c0,0-4.7-0.6-4.7-7.2c0,0-13.7,20-23,23.5
		c0,0-6.6,12-17,15.6c0,0,9.6-9.3,10.1-15.4c0,0-6.6,3.8-16.4-0.6c0,0,20-0.3,23.6-18.6c0,0-3.8-3.6-7.4,1.1l7.9-11.5
		c0,0,3-11.8-6.6-5.8c0,0,16.7-29.6,0.5-21.9c0,0,15.1-32.6,3.6-23c0,0,5.5-27.4,18.4-45.5c0,0-6,4.4-10.1,12.6
		c0,0-5.8,5.2-12.9-4.7c0,0,3.8,16.7-12.9,18.6c0,0,3.6-17.3-11.2-15.6c0,0-3.8,6,5.5,13.2c0,0,4.7,10.4,2.2,20c0,0-0.5,4.1,6.6,4.1
		c0,0-10.4,7.1-27.7-6.8c0,0,4.9,10.1,13.7,11.8c0,0,15.3,4.1,15.6,25.8c0,0-0.3,6,2.7,9c0,0-6.9,3.6-11.5-6.6
		c0,0,1.6,13.4-13.2,17.5c0,0-9.9,3.8-7.4,18.4c0,0-14.3-7.4-6.9-30.4c0,0-12.6,4.4-14.2,16.7c0,0-3.8,22.2-23.3,24.1
		c0,0-9.3,11.8-24.1,4.7c0,0,13.4,0,15.3-10.4c0,0-6.3-9.6,0.5-15.6c0,0-9.9,1.4-10.7,6.9c0,0-4.4,14.5-23.6,15.9
		c0,0-3.5,6.9,4.5,12.1c0,0-15.5-0.9-14.3-23.4c0,0,1.5-13.4,13-17.6c0,0-11.4-1.1-15.1,15.5c0,0-2.1,4.3-8,1.5
		c0,0-4.1,3.2-3.4,11.7c0,0-9.5-3.1-3.8-18.8c0,0,5.2-12.2,15.7-17.5c0,0-16.9,7.5-22.1,20.8c0,0-5.8-8.6,7.6-24
		c0,0,10.6-19.5,38.4-21.7c0,0,25.9,2.8,30.6-16.8c0,0,2.4-6-3.9-8.8c0,0-6.9,7.9-16.7,7.8c0,0,5.6-2.1,6.2-11.7c0,0-2.5,3.2-8.6,2
		c0,0,4.5-1.8,8.2-13.5c0,0-5.4,7.3-11.1,7.8c0,0,9.7-7.2,10.2-25.7c0,0-6.3,9-15.9,9.6c0,0,13.5-9.8,14.7-20.9
		c0,0-14.3,12.5-38.4,2.5c0,0,22.7-0.2,23.8-19.9c0,0-25-10.2-25.7-27.1c0,0,4.5,7.2,8.5,7.7c0,0-1.4-5.4,3.2-9.6
		c0,0-2.2,15.5,12.1,15.7c0,0,13.4,0.9,23.4-15.1c0,0,3-10.6,21.3-15.9c0,0-18.6,0.2-21.5-9.8c0,0,17.4,7.7,32.4,5.9
		c0,0,24.8-2.5,8.2-10.5c0,0,15.7,5.1,27.3,2.7c0,0,20-2.5,32.5,4.3l-2.6-6.2c0,0,22.7,19.2,36.9,23.9c0,0,2.8,17.4-4.4,28.9
		c0,0,11.7-11.7,7.1-37.3c0,0-5.4-26.7-39.1-52.3c0,0-38.7-31.5-50.2-63c0,0,5.4-8.1-1.7-14.2c0,0,4.7,8.3-0.4,12.5
		c0,0-2.1,5.7-9.6,5.3c0,0,6.4-1.9,5.4-8.6l-0.6-1c-6.7-10-8.1,2-8.1,2c-2.2,17.3-10,16.7-10,16.7c9.6-12,0.4-14.1,0.4-14.1
		c-10.2-0.6-10.2,7.9-10.2,7.9c-4.9,17.7-19.8,9.4-19.8,9.4c6.9-3.9,6.9-12.4,6.9-12.4c0.8-8.6-6.3-7.9-6.3-7.9
		c-8.1,0-8.6,5.7-8.6,5.7c-0.8,10.2,3.5,12.4,3.5,12.4c-11.8,3.5-23.2-9.8-23.2-9.8c-10.6-10.8-11.8-0.2-11.8-0.2
		c-0.2,12.8,11.4,14.3,11.4,14.3c-36.3,7.7-29.3-12-29.3-12c-14.7,15.1-25.5,12.4-25.5,12.4c13.6-9.6,9-20.8,9-20.8
		c-11.2,22.2-35.5,15.5-35.5,15.5c-17.9,7.3-17.1-9.8-17.1-9.8c9.2,11.4,14.5-2.4,14.5-2.4c0-6.3,11-3.9,11-3.9
		c-0.1-0.4-0.2-0.8-0.3-1.1c-2.3-6.6-10.5-1.5-10.5-1.5c-3.3,5.1-16.7,2.6-16.7,2.6c-14.5,10.2-19.6-0.2-19.6-0.2
		c-6.7,3.1-2.4,13.9-2.4,13.9c-16.3-10.4-2.9-23.6-2.9-23.6c5.7-6.9,0.8-10.4,0.8-10.4c-8.8,1.2-9,9.4-9,9.4
		c-3.1-21.8,8.6-19.6,8.6-19.6c8.2-4.7,20.6-2.6,20.6-2.6c-2.9-1.8-11.2-1.8-11.2-1.8c-6.7,0.6-3.9-5.5-3.9-5.5
		c-9.8-1.8-12.2,2.9-12.2,2.9c0.8-18.1,17.3-9.2,17.3-9.2c15.5-6.5,26.9,1.4,26.9,1.4c9.4,10.8,58.9,18.5,58.9,18.5
		c12.6-1.8,3.5-6.1,3.5-6.1c4.5-3.7,9.2,0.8,9.2,0.8c-3.7-5.7,0.8-4.7,0.8-4.7l11,1.2L425,381c20.2,1,20.2-3.3,20.2-3.3
		c-20.8-2.4-15.7-17.5-15.7-17.5c7.5,15.7,20,12.4,20,12.4c13.9-3.7,10.8-11.4,10.8-11.4c-5.7-6.1-13.4,4.5-13.4,4.5
		c0.2-13.9,15.9-14.5,15.9-14.5c12.8-0.8,6.9-4.3,6.9-4.3c-30,6.1-29.5-10.4-29.5-10.4c9.7,1.5,13.9,1.8,13.9-6.9c0-0.3,0-0.6,0-0.8
		c-0.5-7.4-8.6-2.1-8.6-2.1c-10.4,8.6-17.1,8.6-17.1,8.6c-21-2.2-9.2-19-9.2-19c1.4,26.7,24.7-5.1,24.7-5.1c0.6-11.2-5.7-12-5.7-12
		c-4.3,0.2-4.7,9.2-4.7,9.2c-11.4-12.6-3.1-20.6-3.1-20.6c-10.2-10.8-5.3-22.2-5.3-22.2c-17.3-2.7-16.7,12.2-16.7,12.2
		c-22.2-11.6-2-28.7-2-28.7c-8.2,0-12.6-5.3-12.6-5.3c-8.2-11.2-18.7-2.2-18.7-2.2c-1.2-16.3,22.6-11.8,22.6-11.8
		c-21.4-8.6-17.3-28.3-17.3-28.3c-8.2-22,9.4-22.8,9.4-22.8c-6.2,5.6-3.7,13.2-3.7,13.2c7.1-3.1,9.6,0.2,9.6,0.2
		c-0.2-12,4.1-16.5,4.1-16.5c-28.3-16.9-16.3-32.8-16.3-32.8c-0.4-8.1-13-4.1-13-4.1c5.9-11.8,17.7-4.5,17.7-4.5
		c11.8,4.1,15.7,17.9,15.7,17.9c1.4-11-6.5-15.9-6.5-15.9c1.4-5.3,8.1-10.4,8.1-10.4c0-0.3,0-0.5,0-0.8c-0.7-7.8-9.4-7.2-9.4-7.2
		c17.1-7.7,16.3,9.2,16.3,9.2c8.2,9.6,7.5,21.4,7.5,21.4c3.9-14.1-4.3-20-4.3-20c2.4-4.3,11.4,0.4,11.4,0.4c0.8-7.3-5.5-11-5.5-11
		c14.9-0.2,13.2,14.5,13.2,14.5c15.5,18.5,6.3,80.5,6.3,80.5l5.6,7.5l3.3-2.6v7.5l4.9,7.1l5.1-4.1v9.2l1.8,1.2l2.2,0.2v5.5l3.8-0.4
		l2.1,6.5l0.7,1.6l2.5,2.2l1,2.7l2.5-0.8l1.6,6.5l1.8-0.2l4.9,7.7l3.7-3.5l1.4,10.2l4.7-0.6l1.8,2.4l-0.1,3.5
		c-8,8.4-10.8,24.4-10.8,24.4c-0.2,6.6-6.4,6.2-6.4,6.2c-7.1-1.6-5.8-13.2-5.8-13.2c-10.3,16,4.6,23.4,4.6,23.4
		c-9.7-10.4-5.9-16.9-5.9-16.9c0.9,8.3,6.8,8.6,6.8,8.6c8.1,0.2,9-7.9,9-7.9c1.8-13.3,9.9-22.6,9.9-22.6c13.1-23,46.6-9.4,46.6-9.4
		c15.4,1.4,18.1-13.8,18.1-13.8c12.9-1,19,11.9,19,11.9c-3-29.5-46.8-12.6-46.8-12.6c-0.3-24.1,10.5-26.2,10.5-26.2
		c0.3,8.9,7.5,3.5,7.5,3.5c3.5-5.2,6.1-3.8,6.1-3.8c-0.4,8.5,5.8,7.3,5.8,7.3c9.4-0.2,4.2-10.8,4.2-10.8c-14.1-3-23.2,0.3-23.2,0.3
		s-11.3,9.1-38.7,6.8c-0.2,0-0.4,0-0.6-0.1c-26.7-2.5-20.9-25.1-20.9-25.1c8.2-21.5,30.9-4,30.9-4l-1.4,1.4
		c-13.6,13.4,13.8,16.6,13.8,16.6c4.1,0.6,8.6,0.7,13,0.6c-7-10.9-7.9-35.3-7.9-35.3c4.2-8,38-8.5,38-8.5l13.3-12.7
		c8.2-3.5,46.1,1,46.1,1c10.6-7.7,1.7-21.1,1.7-21.1c19.2,7.3,8.7,28.6,8.7,28.6c20.2-2.6,10.8-22.2,10.8-22.2
		c13.3,9.1,4.2,26.7,4.2,26.7c13.1-1.2,13.3-13.4,13.3-13.4c10.3,12-1,21.3-1,21.3c12.9-0.3,13.4,8.2,13.4,8.2
		c2.1,7,12.2,12,12.2,12c-5.6,4.7-16.4,2.1-16.4,2.1c4.2,20.1,23.7,18.5,23.7,18.5c-11.9,8.7-20.4,4.4-20.4,4.4
		c0,18.5,15.2,30.5,15.2,30.5c-6.5,4.4-12.6,2.8-12.6,2.8c18,9.9,11.2,25.8,11.2,25.8c-4.7,14.1-25.1,9.6-25.1,9.6
		c1.7,5.2,8.2,4.5,8.2,4.5l0.5,17.4c-0.2,10.8,6.3,12.9,6.3,12.9c-29.7,1.6-33.3-37.9-33.3-37.9c-3.5,19.5,5.4,25.8,5.4,25.8
		c7.2,8.7,3.3,20.9,3.3,20.9c-3.1,9.1-0.9,15.9-0.9,15.9c3.8,17.6,23.4,6.3,23.4,6.3c-1.2,12.2-14.8,13.3-14.8,13.3
		c-27.4,0.2-31.8-28.8-31.8-28.8c0.9,21.3,12.9,28.1,12.9,28.1l-0.3,10.3c12.9,3.2,8.7,22.2,8.7,22.2c-4.8,29.3-32.2,15.1-32.2,15.1
		c9,12.9,21.9,6.1,21.9,6.1c10,59.3,33.5,104.7,33.5,104.7c10,12.6,11.6,31.9,11.6,31.9c3.5,28.3,42.8,25.5,42.8,25.5
		c36.1,0,41.9-22.6,41.9-22.6c3.2-22.2-18-23.8-18-23.8c-10,2.3-22.5,1.9-22.5,1.9c-27.7-1.3-24.5-19.7-24.5-19.7
		c-0.3-26.7,12.2-33.8,12.2-33.8c-8.7,27.7,9.3,29.6,9.3,29.6c30.3,2.6,33.5-15.1,33.5-15.1c-10.3-0.6-15.1,8.4-15.1,8.4
		c-0.3-28.7,25.4-31.2,25.4-31.2l-14.2-29c-12.2,5.2-16.8-2.6-16.8-2.6c-11.9,1.9-9,22.5-9,22.5c-16.1-14.2,2.6-27.7,2.6-27.7
		c-29-8.1-23.8,17.1-23.8,17.1c-13.5-18,4.2-30.3,4.2-30.3c-1.9-8.1-14.8-4.5-14.8-4.5c-13.2,4.2-10,20.9-10,20.9
		c-9-13-7.4-25.8-7.4-25.8c4.2-34.9,49.6-23.9,49.6-23.9l-6.9-4.2c-10.1-8.4-18.5-41.4-18.5-41.4c-6.2-23.6-7.2-46.6-7.2-46.6
		c-1.3-51.5,39-81.5,39-81.5c39.8-30.2,74.7,0.1,74.7,0.1c7.9-11.5,25.4-8.6,25.4-8.6c15-2.4,12.9-21.1,12.9-21.1
		c19.3,27.8-12,33.7-12,33.7c7.3,9.7,18.6,8.9,18.6,8.9c20.5,0.1,17.2-15.9,17.2-15.9c8.9,24.2-14.3,24.2-14.3,24.2
		c1.7,9,17.2,8.9,17.2,8.9c21.6,0,15.6-26.4,15.6-26.4c15.1,27.1-11.8,39.3-11.8,39.3C898.8,281.4,898.9,291.2,898.9,291.2z"/>
	<path d="M563.4,212.1c-8.9,0.3-9.8,13.1-9.8,13.1c-6.6-6.9-9.6-1.6-10.6,1.2c13.1-0.5,25.4-3.1,25.4-3.1
		C567.4,212.5,563.4,212.1,563.4,212.1z"/>
	<path d="M584,179.4l-2.1,9.3c0,0,10.8,1.4,15.3-2.1C597.1,186.5,591.1,178.2,584,179.4z"/>
	<path d="M663,195.4c0,0-16-0.1-23.4-6.5c0,0-14.5-12-26.3,7.5c0,0,13.2-16.3,24.8-5.4c0,0,9.4,6.7,21.2,6.6
		c0,0-14.5,21.2-40.1,15.1C619.4,212.8,643.9,225.6,663,195.4z"/>
</g>
</svg>
