<?xml version="1.0" encoding="utf-8"?>
<!-- Generator: Adobe Illustrator 18.1.1, SVG Export Plug-In . SVG Version: 6.00 Build 0)  -->
<!DOCTYPE svg PUBLIC "-//W3C//DTD SVG 1.1//EN" "http://www.w3.org/Graphics/SVG/1.1/DTD/svg11.dtd">
<svg version="1.1" id="Layer_1" xmlns="http://www.w3.org/2000/svg" xmlns:xlink="http://www.w3.org/1999/xlink" x="0px" y="0px"
	 viewBox="0 0 1200 1200" enable-background="new 0 0 1200 1200" xml:space="preserve">
<g>
	<g>
		<path d="M1029,276c0,0,40.3-18.3,17.7-59.1c0,0,9.1,39.7-23.5,39.7c0,0-23.3,0.2-25.9-13.4c0,0,34.9,0,21.6-36.4
			c0,0,5,24.2-25.9,23.9c0,0-17,1.3-28-13.4c0,0,47.2-8.8,18.1-50.7c0,0,3.2,28-19.4,31.7c0,0-26.3-4.3-38.2,12.9
			c0,0-52.4-45.7-112.4-0.2c0,0-60.6,45.1-58.7,122.7c0,0,1.4,34.6,10.8,70.1c0,0,12.7,49.6,27.9,62.3l10.3,6.3
			c0,0-68.4-16.7-74.7,35.9c0,0-2.5,19.2,11.1,38.8c0,0-4.8-25.2,15-31.5c0,0,19.4-5.3,22.3,6.8c0,0-26.7,18.4-6.3,45.6
			c0,0-7.8-37.8,35.9-25.7c0,0-28.1,20.4-3.9,41.7c0,0-4.4-31,13.6-33.9c0,0,6.8,11.6,25.2,3.9l21.3,43.6c0,0-38.8,3.9-38.3,47
			c0,0,7.3-13.6,22.8-12.6c0,0-4.8,26.7-50.4,22.8c0,0-27.2-2.9-14.1-44.6c0,0-18.9,10.7-18.4,50.9c0,0-4.8,27.6,36.8,29.6
			c0,0,18.9,0.5,33.9-2.9c0,0,32,2.4,27.2,35.9c0,0-8.7,33.9-63,33.9c0,0-59.1,4.4-64.5-38.3c0,0-2.4-29.1-17.5-48
			c0,0-35.4-68.4-50.4-157.6c0,0-19.4,10.2-33-9.2c0,0,41.2,21.3,48.5-22.8c0,0,6.3-28.6-13.1-33.5l0.5-15.5
			c0,0-18.2-10.3-19.5-42.3c0,0,6.6,43.6,47.8,43.3c0,0,20.5-1.6,22.3-20c0,0-29.4,17.1-35.2-9.5c0,0-3.4-10.2,1.3-23.9
			c0,0,5.8-18.4-5-31.5c0,0-13.4-9.5-8.1-38.9c0,0,5.5,59.3,50.1,57c0,0-9.7-3.2-9.5-19.4l-0.8-26.3c0,0-9.7,1-12.3-6.8
			c0,0,30.7,6.8,37.8-14.4c0,0,10.2-23.9-16.8-38.9c0,0,9.2,2.4,18.9-4.2c0,0-22.8-18.1-22.8-45.9c0,0,12.9,6.6,30.7-6.6
			c0,0-29.4,2.4-35.7-27.8c0,0,16.3,3.9,24.7-3.2c0,0-15.2-7.6-18.4-18.1c0,0-0.8-12.9-20.2-12.3c0,0,17.1-13.9,1.6-32
			c0,0-0.3,18.4-20,20.2c0,0,13.7-26.5-6.3-40.2c0,0,14.2,29.4-16.3,33.3c0,0,15.8-32-13.1-43.1c0,0,13.4,20.2-2.6,31.8
			c0,0-57-6.8-69.3-1.6l-20,19.2c0,0-50.9,0.8-57.2,12.9c0,0,1.5,36.6,12,53.1c-6.7,0.2-13.4,0-19.6-0.8c0,0-41.2-4.7-20.7-24.9
			l2.1-2.1c0,0-34.1-26.3-46.5,6c0,0-8.8,33.9,31.4,37.7c0.3,0,0.6,0.1,0.9,0.1c41.2,3.4,58.3-10.2,58.3-10.2s13.7-5,34.9-0.5
			c0,0,7.9,16-6.3,16.3c0,0-9.3,1.8-8.7-11c0,0-3.9-2.1-9.2,5.8c0,0-10.8,8.1-11.3-5.2c0,0-16.3,3.2-15.8,39.4
			c0,0,65.9-25.5,70.4,18.9c0,0-9.2-19.4-28.6-17.9c0,0-4.2,22.8-27.3,20.7c0,0-50.4-20.5-70.1,14.2c0,0-12.2,14-14.9,34.1
			c0,0-1.4,12.2-13.6,11.9c0,0-8.8-0.3-10.2-12.9c0,0-5.8,9.8,8.8,25.5c0,0-22.4-11.3-7-35.3c0,0-1.9,17.4,8.7,19.8
			c0,0,9.3,0.6,9.7-9.3c0,0,4.2-24.2,16.3-36.7l0.1-5.3l-2.7-3.5l-7.1,0.9l-2.1-15.4l-5.6,5.3l-7.4-11.5l-2.7,0.3l-2.4-9.8l-3.8,1.2
			l-1.5-4.1l-3.8-3.3l-1.2-2.4l-3.2-9.8l-5.9,0.6v-8.3l-3.3-0.3l-2.7-1.8V199l-7.1,6.2l-6.8-10.6v-11.2l-5.3,3.8l-8.9-11.2
			c0,0,13.9-93.4-9.5-121.2c0,0,2.7-22.2-19.8-21.9c0,0,9.5,5.6,8.3,16.5c0,0-13.6-7.1-17.1-0.6c0,0,12.4,8.9,6.5,30.1
			c0,0,1.2-17.7-11.2-32.2c0,0,1.2-25.4-24.5-13.9c0,0,13-0.8,14.1,10.9c0,0.4,0.1,0.8,0.1,1.2c0,0-10,7.7-12.1,15.7
			c0,0,11.8,7.4,9.7,23.9c0,0-5.9-20.7-23.6-26.9c0,0-17.7-10.9-26.6,6.8c0,0,18.9-5.9,19.5,6.2c0,0-18,23.9,24.5,49.4
			c0,0-6.5,6.8-6.2,24.8c0,0-3.8-5-14.5-0.3c0,0-3.7-11.4,5.6-19.8c0,0-26.6,1.2-14.2,34.3c0,0-6.2,29.6,26,42.6
			c0,0-35.8-6.8-34,17.7c0,0,15.7-13.6,28.1,3.3c0,0,6.5,8,18.9,8c0,0-30.4,25.7,3,43.2c0,0-0.9-22.5,25.1-18.3c0,0-7.4,17.1,8,33.4
			c0,0-12.4,12.1,4.7,31c0,0,0.6-13.6,7.1-13.9c0,0,9.5,1.2,8.6,18c0,0-35.2,47.9-37.2,7.7c0,0-17.7,25.4,13.9,28.7
			c0,0,10,0,25.7-13c0,0,12.1-8,13,3.2c0,0.4,0,0.8,0,1.2c0,13-6.5,12.6-21,10.3c0,0-0.9,24.8,44.3,15.7c0,0,8.9,5.3-10.3,6.5
			c0,0-23.6,0.9-23.9,21.9c0,0,11.5-16,20.1-6.8c0,0,4.7,11.5-16.3,17.1c0,0-18.9,5-30.1-18.6c0,0-7.7,22.8,23.6,26.3
			c0,0,0,6.5-30.4,5l9.8,6.2l-16.6-1.8c0,0-6.8-1.5-1.2,7.1c0,0-7.1-6.8-13.9-1.2c0,0,13.6,6.5-5.3,9.2c0,0-74.5-11.5-88.7-27.8
			c0,0-17.1-11.8-40.5-2.1c0,0-24.8-13.3-26,13.9c0,0,3.5-7.1,18.3-4.4c0,0-4.1,9.2,5.9,8.3c0,0,12.4,0,16.8,2.7
			c0,0-18.6-3.2-31,3.8c0,0-17.7-3.3-13,29.6c0,0,0.3-12.4,13.6-14.2c0,0,7.4,5.3-1.2,15.7c0,0-20.1,19.8,4.4,35.5
			c0,0-6.5-16.3,3.5-21c0,0,7.7,15.7,29.6,0.3c0,0,20.1,3.8,25.1-3.8c0,0,12.3-7.8,15.8,2.2c0.2,0.5,0.3,1,0.4,1.6
			c0,0-16.6-3.5-16.6,5.9c0,0-8,20.7-21.9,3.5c0,0-1.2,25.7,25.7,14.8c0,0,36.6,10,53.5-23.3c0,0,6.8,16.8-13.6,31.3
			c0,0,16.3,4.1,38.4-18.6c0,0-10.6,29.6,44,18c0,0-17.4-2.4-17.1-21.6c0,0,1.8-16,17.7,0.3c0,0,17.1,20.1,34.9,14.8
			c0,0-6.5-3.2-5.3-18.6c0,0,0.9-8.6,13-8.6c0,0,10.6-1.2,9.5,11.8c0,0,0,12.7-10.3,18.6c0,0,22.5,12.4,29.8-14.2
			c0,0,0-12.7,15.4-11.8c0,0,13.9,3.2-0.6,21.3c0,0,11.8,0.9,15.1-25.1c0,0,2.1-18,12.1-3l0.9,1.5c1.6,10.1-8.1,12.9-8.1,12.9
			c11.3,0.7,14.5-7.9,14.5-7.9c7.6-6.4,0.5-18.9,0.5-18.9c10.6,9.2,2.5,21.3,2.5,21.3c17.4,47.4,75.6,94.8,75.6,94.8
			c50.7,38.5,58.9,78.7,58.9,78.7c6.9,38.5-10.7,56.1-10.7,56.1c10.9-17.3,6.6-43.4,6.6-43.4c-21.4-7.1-55.5-36-55.5-36l3.9,9.3
			c-18.9-10.1-49-6.4-49-6.4c-17.5,3.6-41.1-4.1-41.1-4.1c25.1,12.1-12.3,15.8-12.3,15.8c-22.6,2.7-48.8-8.9-48.8-8.9
			c4.5,15.1,32.4,14.8,32.4,14.8c-27.6,7.8-32,23.9-32,23.9c-15.1,24.2-35.3,22.8-35.3,22.8c-21.5-0.4-18.2-23.7-18.2-23.7
			c-6.9,6.2-4.8,14.4-4.8,14.4c-6.1-0.7-12.8-11.6-12.8-11.6c1.1,25.5,38.6,40.8,38.6,40.8c-1.6,29.6-35.8,29.9-35.8,29.9
			c36.3,15.1,57.9-3.7,57.9-3.7c-1.8,16.7-22.1,31.5-22.1,31.5c14.4-0.9,23.9-14.4,23.9-14.4c-0.7,27.8-15.3,38.6-15.3,38.6
			c8.5-0.7,16.7-11.8,16.7-11.8c-5.5,17.6-12.3,20.3-12.3,20.3c9.3,1.8,13-3,13-3c-0.9,14.4-9.3,17.6-9.3,17.6
			c14.8,0.2,25.1-11.8,25.1-11.8c9.4,4.1,5.9,13.2,5.9,13.2c-7.1,29.6-46.1,25.3-46.1,25.3c-41.8,3.2-57.9,32.6-57.9,32.6
			c-20.1,23.1-11.4,36.1-11.4,36.1c7.8-20.1,33.3-31.3,33.3-31.3c-15.8,8-23.7,26.4-23.7,26.4c-8.5,23.7,5.7,28.3,5.7,28.3
			c-1.1-12.8,5.2-17.6,5.2-17.6c8.9,4.1,12.1-2.3,12.1-2.3c5.7-24.9,22.8-23.3,22.8-23.3c-17.3,6.4-19.6,26.5-19.6,26.5
			c-1.8,33.8,21.5,35.3,21.5,35.3c-12.1-7.8-6.8-18.2-6.8-18.2c28.9-2.1,35.5-23.9,35.5-23.9c1.2-8.2,16.1-10.3,16.1-10.3
			c-10.3,9.1-0.8,23.5-0.8,23.5c-2.9,15.7-23.1,15.7-23.1,15.7c22.3,10.7,36.3-7,36.3-7c29.3-2.9,35.1-36.3,35.1-36.3
			c2.5-18.6,21.4-25.2,21.4-25.2c-11.1,34.6,10.3,45.8,10.3,45.8c-3.7-21.9,11.1-27.6,11.1-27.6c22.3-6.2,19.8-26.4,19.8-26.4
			c7,15.3,17.3,9.9,17.3,9.9c-4.5-4.5-4.1-13.6-4.1-13.6c-0.4-32.6-23.5-38.8-23.5-38.8c-13.2-2.5-20.6-17.7-20.6-17.7
			c26,21,41.7,10.3,41.7,10.3c-10.7,0-9.9-6.2-9.9-6.2c3.7-14.5-3.3-30.1-3.3-30.1c-14-10.7-8.2-19.8-8.2-19.8
			c22.3-2.5,16.9,23.5,16.9,23.5c25.2-2.9,19.4-28,19.4-28c10.7,14.8,19.4,7,19.4,7c6.2-12.4,15.3-19,15.3-19
			c-19.4,27.2-27.6,68.5-27.6,68.5c17.3-14.4-5.4,34.6-5.4,34.6c24.3-11.6-0.8,33-0.8,33c14.4-9.1,9.9,8.7,9.9,8.7l-12,17.3
			c5.4-7,11.1-1.7,11.1-1.7c-5.4,27.6-35.5,28-35.5,28c14.8,6.6,24.7,0.8,24.7,0.8c-0.8,9.1-15.3,23.1-15.3,23.1
			c15.7-5.4,25.6-23.5,25.6-23.5c14-5.4,34.6-35.5,34.6-35.5c0,9.9,7,10.7,7,10.7l2.5,5.4h4.9l0.4,16.5c0-4.9,9.5-2.9,9.5-2.9
			l0.4,15.7c6.2-12,13.2-5.4,13.2-5.4l0.4,13.2l8.7-3.3l3.3,16.5l7-4.1l0.8,13.6l6.6-0.8c-2.1,49.1-25.6,61-25.6,61
			c-66.4,32.6-61.4,52-61.4,52c-21,19.8-3.3,36.3-3.3,36.3c0-15.3,13.2-25.2,13.2-25.2l0.2-0.3c3.3-5.8,16.3-12.2,16.3-12.2
			c-18.3,12.6-17.9,23.2-17.9,23.2c0.5,4.7,1.8,8.7,1.8,8.7c-13.2,20.2,11.5,31.8,11.5,31.8c-6.2-10.7,0-21.9,0-21.9
			c4.9,0.7,8,0.7,9.9,0.4v-2.4c-1.2-23.7,14.7-28.7,14.7-28.7c-16.4,15.4-11.7,28.7-11.7,28.7s6.4,37.7,36.4,28.3
			c0,0-14.4-4.3-15.9-14.2l1.3-0.8c17.3-5.8,26.4-32.2,26.4-32.2c25.6-0.8,21.9-21.4,21.9-21.4c1.2-13.2,16.5-19.4,16.5-19.4
			c-9.5,23.5,1.2,27.2,1.2,27.2c0,19.4-12.8,23.5-12.8,23.5c24.3,0.4,26.8-23.5,26.8-23.5c27.2-12,13.6-45,13.6-45
			c19.8-2.9,16.1,20.6,16.1,20.6c26-16.9,19.8-40,19.8-40c-13.2-17.7,0-20.6,0-20.6c21.9,0,10.7,29.7,10.7,29.7
			c20.6-6.6,19.4-32.2,19.4-32.2c29.7-9.9,26-40.8,26-40.8s-15.2,26.4-34.6,1.7c0,0-10-12.2,19.2-15.7c0,0,0.7-20.6-36.3-19.9
			c0,0-18.7-0.2-17.1-16.2c0,0-0.1-15.6,24.2,4.8c0,0,3.2-28.5-28.8-28.3c0,0-7.3,2.1-8.7-5.2c0,0,20.8-5.5,23.3-35.2
			c0,0-39.5,31.5-46.3-12.3c0,0-2.3-13.5,11-14.4c0,0,11-1.9,11.2,17.8c0,0,19.2-18.7,2.5-32c0,0,18.7-9.4,14.4-29.7
			c0,0-16.4,31.5-28.1,6.2c0,0-4.8-4.8,6.6-14.2c0,0,15.1-13.2,16.4-35.4c0,0,2.5,0.9,2.5,14.4c0,0,26.3,30.6,82.2,21.5
			c0,0,56.8-12.8,79-57.1c0,0,28.8,4.3,48.2-8c0,0-11-5.9,1.6-14.6c0,0,13.2-4.3,19.2-18c0,0-13.7,12.1-13.7,0
			c0,0,9.4-44.1-20.8-52.5c0,0-12.6-41.6-51.8-36.8c0,0,4.6-3.2,12.6-6.4c0,0-42.2-58.4-16.4-95.4c0,0-24.4-8.7-19.6-29.2
			c0,0-1.4-25.3,27.6-26.3c0,0,20.5,0.2,19.2,21.7c0,0,0.7,15.2-15.7,23.3c0,0,23.7,0.5,27.6-33.3c0,0,5.5-44.3-46.6-43.8
			c0,0-46.6-0.2-60.3,47.9l0.2-22.8c0,0-17.4-45.2-19.2-85.8c0,0-21.5-139.1,106-129.7c0,0-9.9,41.2-29.1,50.5
			c0,0-21.4,5.5-17.6-25.3c0,0-25.8,34.6,17,41.2c0,0,20.3,4.4,40.1-21.4c0,0,14.3,14.8,11.5,38.4c0,0-6.2,20.8-21.7,20.8
			c0,0-11.1-3.3-7.1-24.6c0,0-17.5,5.4-17.5,29.3c0,0-2.6,21.8,37.7,20.7c0,0-19.8,63,37.1,65.8c0,0-27.8-12.5-9.7-44.9v-0.9
			c0,0,24.4-11.4,20.1-43.4c0,0,20.5,6.7,19.8,27.2c0,0-3,21.1-29.1,18.8c0,0,38.4,35.8,63.4-31.3c0,0,7.8-22.2-7.8-33.4
			c0,0,13.2,0.2,21.4-11c0,0,18.5,1.9,18.1,19.8c0,0-1.5,18.3-13.2,20.9c0,0,25.5,2.4,19.6-43.8C1045.8,294.2,1045.6,279.3,1029,276
			z M510.3,196.6c1.5-4.2,6-12.2,15.9-1.8c0,0,1.3-19.2,14.7-19.7c0,0,6,0.5,7.6,16.8C548.5,191.9,530,195.8,510.3,196.6z
			 M568.7,139.8l3.2-14c10.8-1.7,19.8,10.8,19.8,10.8C584.9,141.8,568.7,139.8,568.7,139.8z M625.1,176.1
			c38.5,9.1,60.3-22.8,60.3-22.8c-17.8,0.1-32-10-32-10c-17.5-16.5-37.4,8.1-37.4,8.1c17.7-29.4,39.5-11.2,39.5-11.2
			c11,9.7,35.2,9.8,35.2,9.8C662,195.3,625.1,176.1,625.1,176.1z"/>
	</g>
</g>
</svg>
