<?xml version="1.0" encoding="utf-8"?>
<!-- Generator: Adobe Illustrator 18.1.1, SVG Export Plug-In . SVG Version: 6.00 Build 0)  -->
<!DOCTYPE svg PUBLIC "-//W3C//DTD SVG 1.1//EN" "http://www.w3.org/Graphics/SVG/1.1/DTD/svg11.dtd">
<svg version="1.1" id="Layer_1" xmlns="http://www.w3.org/2000/svg" xmlns:xlink="http://www.w3.org/1999/xlink" x="0px" y="0px"
	 viewBox="0 0 1200 1200" enable-background="new 0 0 1200 1200" xml:space="preserve">
<g>
	<g>
		<path d="M151.2,609.6c-2.5,1.4-3.7,3.9-3.7,7.4v46.3c0,0.1-0.1,0.3-0.4,0.5c-2.9,2.2-6.1,4-9.6,5.3c-3.5,1.3-7.1,2.3-10.8,3
			c-3.7,0.7-7.4,1.1-11.2,1.3c-3.7,0.2-7.3,0.3-10.9,0.3c-5.4,0-10.8-0.2-16.3-0.5c-9.6-0.7-18.3-3.2-26.1-7.3
			c-7.7-4.1-14.3-9.5-19.7-16.2C37.1,643,32.9,635.5,30,627c-2.9-8.5-4.4-17.4-4.4-26.8c0-10.9,1.9-20.5,5.9-28.8
			c3.9-8.3,9.2-15.4,16-21c6.8-5.7,14.7-9.9,23.7-12.8c9-2.9,18.7-4.3,28.9-4.3c5.5,0,11,0.3,16.5,0.9c5.5,0.6,11,1.3,16.4,2
			c2.4,0.4,4.8,0.7,7.2,1.1c2.4,0.4,4.8,0.7,7.2,0.9c0.5,0,0.7,0.2,0.7,0.7c-0.2,4.4-0.7,8.7-1.3,12.9c-0.6,4.2-1.2,8.4-1.8,12.7
			c-0.1,0.9-0.2,1.7-0.4,2.5c-0.1,0.8-0.2,1.6-0.4,2.3c0,0.4-0.2,0.6-0.6,0.6c-0.4,0.1-0.7-0.1-0.8-0.5c-1-5.2-2.7-9.8-5.3-13.5
			c-2.6-3.8-5.7-6.9-9.4-9.4c-3.7-2.5-7.9-4.3-12.5-5.5c-4.6-1.2-9.4-1.7-14.4-1.7c-8.4,0-16.2,1.4-23.5,4.2
			c-7.3,2.8-13.6,6.7-18.9,11.8c-5.4,5.1-9.6,11.2-12.7,18.3c-3.1,7.1-4.7,15-4.7,23.5c0,9.3,1.7,18,5.1,26.2
			c3.4,8.2,8.1,15.4,14,21.6c5.9,6.2,12.9,11,21,14.6c8.1,3.6,16.9,5.4,26.2,5.4c4,0,8.1-0.5,12.3-1.4c4.1-0.9,7.7-2.9,10.6-5.9
			v-41.1c0-2.9-0.9-4.9-2.7-5.9c-1.8-1-3.9-1.9-6.2-2.7c-1-0.2-2-0.5-2.9-0.9c-1-0.4-2-0.9-2.9-1.5c-0.4-0.2-0.5-0.5-0.4-0.8
			c0.1-0.3,0.4-0.5,0.7-0.5c7.3,0,14.5,0.1,21.7,0.2c7.1,0.1,14.4,0.4,21.7,0.7l0.2,1.5C156.5,607.2,153.7,608.2,151.2,609.6z"/>
		<path d="M247.5,658.2c-1.5-0.1-3.1-0.2-4.8-0.4c-1-0.1-2-0.2-3-0.3c-1-0.1-2.1-0.1-3.2-0.1c-2.8,0-5.6,0.1-8.4,0.4
			c-2.8,0.2-5.6,0.5-8.4,0.7c-0.4,0-0.6-0.2-0.7-0.5c-0.1-0.4,0-0.7,0.4-0.9l7.1-3.5c-2.1-5.7-4.2-11.4-6.5-16.9
			c-2.3-5.5-4.4-11.2-6.5-17.1H185c-0.6,1.6-1.5,3.9-2.7,7c-1.2,3.1-2.3,6.3-3.4,9.7c-1.1,3.4-2.1,6.5-2.9,9.5
			c-0.9,3-1.3,5.2-1.3,6.5c0,1.8,0.8,3,2.4,3.6c1.6,0.5,3.1,0.9,4.6,1.2v1.5c-2.3-0.2-4.7-0.5-7.1-0.6c-2.4-0.2-4.9-0.3-7.3-0.3
			c-2.4,0-4.9,0.1-7.3,0.3c-2.4,0.2-4.9,0.4-7.3,0.6c-0.4,0.1-0.6-0.1-0.6-0.5c-0.1-0.5,0.1-0.8,0.5-0.9c6.7-0.9,11.4-4.4,14.1-10.6
			v0.2c3.5-8.9,6.9-17.8,10.2-26.7c3.3-8.9,6.5-17.9,9.7-26.9c2.2-6.1,4.3-12.2,6.4-18.2c2.1-6,4.3-12.1,6.6-18.2
			c0.1-0.4,0.4-0.5,0.7-0.5c0.4,0,0.6,0.2,0.7,0.5c0.6,1.7,1.2,3.4,1.9,5c0.7,1.6,1.3,3.3,1.9,5c5,13.7,10.2,27.4,15.6,41.1
			c5.4,13.8,11.6,27.2,18.6,40.4c1.5,2.8,3.3,4.8,5.6,6c2.3,1.2,4.8,1.9,7.8,2.2v1.5C250.6,658.3,249,658.3,247.5,658.2z
			 M199.3,575.5c-2.1,6.5-4.1,12.8-5.9,18.9c-1.9,6.2-4,12.5-6.3,19.1h23.6L199.3,575.5z"/>
		<path d="M384.3,658.4c-4.9,0-9.8,0-14.8,0c-4.9,0-9.7-0.1-14.4-0.4c-0.7,0-1-0.3-0.7-0.9c0.1-0.2,0.2-0.5,0.3-0.7
			c0.1-0.2,0.2-0.5,0.3-0.7c0.4-1.1,0.7-2.2,1.1-3.3c0.4-1.1,0.5-2.1,0.5-3.1c0-6.9-0.3-13.8-1-20.6c-0.7-6.8-1.4-13.6-2.3-20.4
			c-0.5-4.1-0.9-7.8-1.4-11.1c-0.4-3.2-0.8-7-1-11.2c-4.6,8.9-9.1,17.8-13.3,26.7c-4.3,8.9-8.5,17.9-12.8,27.1
			c-1.5,3-2.9,6.1-4.3,9.1c-1.4,3-2.8,6-4.3,9.1c-0.1,0.2-0.3,0.4-0.5,0.4c-0.2,0-0.5-0.1-0.7-0.4c-5.6-7.8-10.5-15.8-14.5-23.9
			c-4.1-8.1-8-16.2-11.6-24.4c-2-4.3-3.7-8.1-5.2-11.6c-1.5-3.5-3.3-7.3-5.4-11.4c-0.4,3-0.7,6-1.1,8.9c-0.4,2.9-0.7,5.7-1.1,8.5
			c-1,7.6-1.8,15.1-2.6,22.5c-0.7,7.4-1.1,15-1.1,22.7c0,2.2,0.5,3.7,1.6,4.5c1.1,0.8,2.4,1.5,4,2.1c0.5,0.2,1.2,0.5,2,0.8
			c0.9,0.3,1.4,0.5,1.6,0.6c0.4,0.2,0.5,0.5,0.4,0.9c-0.1,0.4-0.4,0.5-0.7,0.5c-1.7,0-3.4,0-5-0.1c-1.6-0.1-3.3-0.2-5-0.3
			c-1.7-0.1-3.4-0.2-5.1-0.3c-1.7-0.1-3.4-0.1-5.1-0.1c-1.2,0-2.4,0-3.7,0c-1.1,0-2.3,0.1-3.7,0.4c-0.4,0.1-0.6-0.1-0.7-0.5
			c-0.1-0.5,0-0.8,0.4-0.9c1-0.2,1.7-0.4,2.2-0.4c1.3-0.2,2.5-0.5,3.5-0.8c1-0.3,1.9-1.1,2.7-2.5c0.2-0.4,0.6-1.9,1-4.8
			c0.4-2.8,0.9-6.4,1.5-10.7c0.5-4.3,1.2-9.2,1.8-14.7c0.7-5.5,1.3-11.1,1.9-16.8c0.6-5.7,1.2-11.4,1.8-16.9
			c0.6-5.5,1.2-10.6,1.6-15.3c0.5-4,0.9-7.6,1.1-10.7c0.2-3.1,0.5-5.3,0.7-6.7c0-0.4,0.2-0.6,0.5-0.6c0.3-0.1,0.6,0,0.8,0.3
			c1.5,1.6,3.5,4.7,6.2,9.4c2.7,4.7,5.6,10.1,8.7,16.4c3.1,6.2,6.3,12.8,9.7,19.7c3.4,6.9,6.4,13.4,9.2,19.4c2.1,4.3,3.8,7.9,5.1,11
			c1.3,3,2.6,5.6,3.7,7.7c1.9-3.9,3.9-8.1,5.9-12.7c2-4.6,4-9.1,5.9-13.6c4.3-9.9,8.8-19.9,13.5-30c4.8-10.1,9.8-19.1,15.2-27.1
			c0.2-0.2,0.5-0.3,0.7-0.3c0.2,0.1,0.4,0.3,0.4,0.6c0.2,1.5,0.5,3.5,0.6,6.1c0.2,2.6,0.5,5.6,0.8,9.1c0.4,4.5,0.8,9.4,1.4,14.8
			c0.5,5.4,1.1,10.9,1.7,16.5c0.6,5.6,1.2,11.1,1.8,16.4c0.6,5.3,1.2,10.1,1.9,14.5c0.7,4.4,1.3,8.1,1.9,11.1c0.6,3,1.2,4.8,1.8,5.6
			c1.3,2,2.6,3.2,3.8,3.8c1.2,0.5,2.7,0.9,4.4,1.2c0.9,0.2,1.7,0.4,2.7,0.5c0.9,0.1,1.9,0.3,2.8,0.8L384.3,658.4z"/>
		<path d="M442.9,649.1c-0.4,2.6-0.7,5.3-1.1,8.1c0,0.4-0.2,0.5-0.7,0.5l-0.2,0.2c-1,0.4-1.8,0.5-2.4,0.5c-2.8,0-5.6,0-8.5-0.1
			c-2.9-0.1-5.7-0.1-8.5-0.1c-2.4,0-4.8,0-7.1-0.1c-2.3-0.1-4.7-0.1-7.1-0.1c-3.3,0-6.6,0-10,0.1c-3.4,0.1-6.7,0.2-10,0.3v-1.5
			c1.8,0,3.3-0.4,4.5-1.2c1.2-0.8,2-1.8,2.7-3c0.6-1.2,1-2.6,1.2-4.1c0.2-1.5,0.3-3.1,0.3-4.7V568c0-2.4-0.6-4-1.7-4.8
			c-1.2-0.7-2.4-1.3-3.7-1.8c-0.7-0.2-1.6-0.5-2.5-0.8c-0.9-0.3-1.9-0.8-2.8-1.4c-0.2-0.2-0.3-0.5-0.3-0.8c0.1-0.3,0.3-0.5,0.6-0.5
			h52.1c0.5-0.2,1-0.5,1.6-0.6c0.5-0.2,1.1-0.4,1.6-0.6c0.6-0.2,0.9,0,0.9,0.7c-0.4,3.2-0.8,6.1-1.4,8.9c-0.5,2.7-1.1,5.5-1.7,8.3
			c-0.1,0.4-0.4,0.5-0.8,0.5c-0.4-0.1-0.6-0.3-0.6-0.6c-0.2-4.3-1.7-7.1-4.4-8.4c-2.7-1.3-6-2-9.9-2h-14.4v37.5h21.2
			c0.6,0,1.4-0.2,2.4-0.5c1-0.4,1.9-0.7,2.9-1.1c1.3-0.7,2.7-1.3,4-1.6c0.6-0.2,0.9,0,0.9,0.7c-0.1,1.5-0.3,3-0.5,4.8
			c-0.2,1.7-0.4,3.3-0.6,4.8c-0.2,1.5-0.4,3-0.5,4.6c-0.1,1.6-0.3,3.1-0.5,4.6c0,0.4-0.2,0.6-0.5,0.7c-0.3,0.1-0.6,0.1-0.8-0.2
			c-0.6-0.6-1-1.2-1.2-1.8c-0.2-0.6-0.4-1.3-0.6-2c-0.2-0.7-0.5-1.5-0.7-2.2c-0.2-0.7-0.7-1.4-1.3-2c-0.6-0.6-1.7-1.1-3.4-1.4
			c-1.6-0.3-3.4-0.5-5.3-0.7c-1.9-0.2-3.7-0.3-5.6-0.3c-1.8,0-3.2,0-4.2,0h-5.5v37.7c1.8,2.7,4.4,4.7,7.8,6.1
			c3.4,1.4,6.6,2.1,9.8,2.1c4.3,0,7.9-1.1,10.9-3.4c3-2.3,5-5.5,5.9-9.6l1.5,0.4C443.8,643.8,443.3,646.5,442.9,649.1z"/>
		<path d="M554.4,594.3c-0.1,0.2-0.2,0.3-0.5,0.3c-0.2,0-0.4-0.2-0.4-0.4c0-2.3-0.6-3.9-1.9-4.9c-1.3-0.9-3-1.4-5.2-1.4
			c-1,0-1.9,0.1-2.8,0.2c-0.9,0.1-1.8,0.2-2.8,0.4c-0.7,0.1-1.5,0.2-2.3,0.3c-0.8,0.1-1.6,0.1-2.3,0.1v20.6h14.2
			c0.5,0,1.1-0.2,1.7-0.6c0.6-0.4,1.1-0.8,1.5-1.3c0.1-0.1,0.3-0.2,0.5-0.1c0.2,0.1,0.3,0.2,0.3,0.4c-0.1,2-0.3,3.9-0.6,5.7
			c-0.2,1.9-0.5,3.7-0.9,5.5c-0.1,0.2-0.2,0.3-0.5,0.3c-0.2,0-0.4-0.2-0.4-0.4c0.1-2.3-0.5-3.9-1.7-4.8c-1.2-0.9-3-1.3-5.2-1.3h-8.8
			v21c0,0.8,0.2,1.7,0.5,2.6c0.3,0.9,0.8,1.7,1.5,2.4c0.6,0.7,1.4,1.3,2.2,1.7c0.8,0.4,1.7,0.6,2.7,0.6v0.8h-0.7
			c-0.8,0-1.5,0-2.2-0.1c-0.7-0.1-1.4-0.1-2.2-0.2c-0.8-0.1-1.5-0.1-2.2-0.2c-0.7,0-1.4-0.1-2.1-0.1c-0.7,0-1.4,0-2.1,0.1
			c-0.7,0.1-1.4,0.1-2.1,0.2c-0.8,0.1-1.7,0.1-2.5,0.2c-0.8,0-1.6,0.1-2.4,0.1h-0.6c-0.2,0-0.3-0.1-0.4-0.4c0-0.2,0.1-0.4,0.3-0.5
			c1.3-0.2,2.2-0.5,2.9-0.8c0.7-0.3,1.2-0.7,1.5-1.3c0.3-0.5,0.5-1.2,0.5-2c0-0.8,0.1-1.8,0.1-3.1v-43.8c0-1.6-0.3-2.6-0.9-3
			c-0.6-0.4-1.4-0.7-2.2-0.9c-0.4-0.1-0.8-0.3-1.3-0.5c-0.5-0.2-1.1-0.4-1.6-0.8c-0.2-0.1-0.3-0.3-0.2-0.5c0.1-0.2,0.2-0.3,0.4-0.3
			c4.4,0.2,8.8,0.3,13.3,0.3h7.4c0.3,0,0.7,0,1.1,0.1c0.4,0,0.8,0.1,1.2,0.1c1.6,0.1,3.3,0.1,5,0c1.7-0.1,3.2-0.5,4.5-1.2
			c0.1-0.1,0.3-0.1,0.5,0c0.2,0.1,0.2,0.3,0.2,0.5L554.4,594.3z"/>
		<path d="M1126.8,542.6c-0.1,4.3-0.7,8.2-1.7,11.6c-0.1,0.4-0.4,0.6-0.8,0.6c-0.4,0-0.6-0.2-0.8-0.6c-0.6-3.2-1.6-5.8-3-7.8
			c-1.3-2-3-3.6-5.1-4.7c-2.1-1.2-4.4-2-6.9-2.4c-2.6-0.4-5.3-0.7-8.1-0.7H612.8v112.3c0,5.1,1.6,9.5,4.9,13.1
			c3.3,3.6,7.3,5.8,12.2,6.5c0.4,0.1,0.5,0.4,0.5,0.9c-0.1,0.4-0.3,0.7-0.7,0.7c-4.5-0.4-9-0.7-13.6-1c-4.6-0.3-9.1-0.4-13.7-0.4
			c-3.3,0-6.6,0.1-9.9,0.3c-3.3,0.2-6.6,0.4-9.9,0.7c-0.4,0-0.6-0.2-0.7-0.7c-0.1-0.4,0.1-0.7,0.5-0.9c3.1-0.6,5.5-1.3,7.2-2.1
			c1.7-0.8,3-1.8,3.8-3.1c0.8-1.3,1.3-2.9,1.5-4.9c0.2-2,0.3-4.5,0.3-7.6V538.9h-31.7c-4.1,0-7.7,1.4-10.9,4.3
			c-3.1,2.9-5.5,6.1-7,9.7c-0.3,0.4-0.5,0.5-0.9,0.5c-0.3-0.1-0.5-0.3-0.5-0.7c-0.3-1.3-0.4-2.4-0.4-3.5c0-2.6,0.3-5.1,1-7.5
			c0.6-2.4,1.3-4.9,2.1-7.5c0.4-1.3,0.8-2.5,1.2-3.7c0.4-1.2,0.7-2.4,1-3.6c0.3-0.8,0.6-0.9,1.2-0.4c2.7,1.7,5.3,2.7,7.9,3.2
			c2.6,0.4,5.5,0.7,8.8,0.7h547.8c1,0,2.1-0.2,3.4-0.5c1.2-0.3,2.3-0.6,3.4-0.9c0.6-0.1,1.4-0.3,2.2-0.4c0.8-0.1,1.7-0.3,2.6-0.4
			c0.4,0,0.6,0.3,0.6,0.8v1.5C1127,534.3,1126.9,538.3,1126.8,542.6z"/>
		<path d="M730.6,658.9c-6.5-0.4-12.9-0.6-19.2-0.6c-2.3,0-4.6,0-6.9,0.1c-2.3,0.1-4.6,0.2-7,0.3c-0.4,0-0.6-0.2-0.6-0.6
			c-0.1-0.4,0.1-0.7,0.5-0.8c3.8-1.1,6.2-2.6,7.3-4.4c1.1-1.8,1.6-4.7,1.6-8.6v-38h-56.1v38.4c0,7.7,4,11.9,11.9,12.6
			c0.4,0,0.6,0.2,0.6,0.7c0,0.5-0.2,0.7-0.6,0.7c-1.9,0-3.8,0-5.7,0c-1.7,0-3.5,0.1-5.5,0.2c-1.3,0-2.9,0-4.7,0.1
			c-1.8,0.1-3.3,0.1-4.7,0.1c-1.5,0-3,0-4.6,0c-1.6,0-3.2-0.1-4.8-0.2c-0.5,0-1.1,0-1.7-0.1c-0.7-0.1-1.3-0.1-1.7-0.1
			c-0.4,0-0.6-0.2-0.6-0.6c-0.1-0.4,0.1-0.7,0.5-0.8c1.9-0.4,3.5-0.8,4.8-1.2c1.2-0.4,2.1-1,2.7-1.8c0.6-0.8,1-1.8,1.2-3
			c0.2-1.2,0.3-2.8,0.3-4.8v-77.9c0-2.7-1.1-4.7-3.2-6c-2.1-1.3-4.4-2.1-6.9-2.2v-1.5c5.1,0.4,10.2,0.5,15.2,0.5
			c2.1,0,4.1,0,6.2-0.1c2.1-0.1,4.1-0.1,6.2-0.1h3.8c0.4,0,0.5,0.2,0.5,0.7c0,0.5-0.2,0.7-0.5,0.7c-2.2,0-4.2,0.7-5.9,2
			c-1.8,1.3-2.7,3.2-2.7,5.7v31.8h56v-31.1c0-2.9-0.8-4.8-2.3-5.6c-1.5-0.8-3.4-1.5-5.6-2.1c-0.5-0.1-0.9-0.2-1.4-0.4
			c-0.4-0.1-0.9-0.2-1.4-0.4c-0.4-0.1-0.5-0.4-0.5-0.8c0.1-0.4,0.3-0.6,0.6-0.6c5.9,0.4,11.5,0.5,17,0.5c2.4,0,4.9,0,7.4-0.1
			c2.5-0.1,5-0.2,7.4-0.3c0.4,0,0.6,0.2,0.6,0.6c0.1,0.4-0.1,0.7-0.5,0.8c-2.7,0.5-4.8,1.2-6.4,2.1c-1.6,0.9-2.4,2.9-2.4,5.9v75
			c0,4.1,0.9,7.3,2.7,9.3c1.8,2.1,4.8,3.5,9,4.2L730.6,658.9z"/>
		<path d="M828.6,660.3c-2.3,0.5-4.5,0.8-6.7,0.8c-3.7,0-7-0.7-9.9-2c-2.9-1.3-5.5-3-7.9-5.1c-2.3-2.1-4.5-4.4-6.5-7.1
			c-2-2.7-3.9-5.4-5.8-8.2c-1.7-2.6-3.5-5.1-5.4-7.6c-1.9-2.5-4-4.8-6.2-6.8c-2.3-2-4.7-3.6-7.3-4.8c-2.6-1.2-5.6-1.8-8.9-1.8
			c-1,0-2,0-2.9,0c-0.9,0-1.8,0.1-2.7,0.4v26c0,3.5,1.1,6.6,3.2,9.1c2.1,2.5,5,3.9,8.5,4.3v1.5c-2.8-0.2-5.6-0.5-8.3-0.6
			c-2.7-0.2-5.5-0.3-8.3-0.3c-2.8,0-5.5,0.1-8.1,0.4c-2.6,0.2-5.3,0.5-8.1,0.9c-0.4,0.1-0.6,0-0.8-0.5c-0.2-0.4-0.1-0.8,0.3-1
			c2.6-1.2,4.7-3,6.4-5.5c1.7-2.4,2.6-5.1,2.6-7.9v-73c0-2.8-1-5.3-3-7.4c-2-2.1-4.4-3.6-7.2-4.3c-0.4-0.1-0.5-0.4-0.5-0.8
			c0.1-0.4,0.3-0.6,0.6-0.6h36c3.8,0,7.5,0.5,11.2,1.4c3.7,0.9,6.9,2.3,9.7,4.3c2.8,2,5.1,4.5,6.8,7.7c1.7,3.2,2.6,6.9,2.6,11.3
			c0,5.9-1.6,11.4-4.8,16.6c-3.2,5.2-6.9,9.8-10.9,13.5c1.3,1.5,2.8,3.3,4.4,5.6c1.6,2.3,3.3,4.6,5.1,7c2.7,3.7,5.5,7.4,8.5,11.2
			c3,3.8,6.1,7.3,9.4,10.4c3.3,3.1,6.7,5.5,10.2,7.3c3.5,1.8,7.1,2.4,10.8,1.9l0.5,1.5C833.1,659,830.9,659.7,828.6,660.3z
			 M787.5,580.1c-0.9-3.2-2.3-6-4.1-8.6c-1.8-2.6-4.1-4.7-6.8-6.3c-2.7-1.6-5.8-2.5-9.3-2.5c-1.5,0-2.9,0.1-4.4,0.3
			c-1.5,0.2-2.9,0.6-4.2,1.2v45.5c2.1,0.4,4.1,0.6,6,0.7c1.9,0.1,4,0.2,6,0.2c6.8,0,11.5-1.9,14.2-5.6c2.6-3.7,3.9-8.9,3.9-15.5
			C788.9,586.4,788.4,583.3,787.5,580.1z"/>
		<path d="M921.5,631.2c-2.9,6-6.7,11.2-11.4,15.6c-4.8,4.4-10.3,7.8-16.5,10.2c-6.3,2.4-12.9,3.7-19.8,3.7
			c-5.7,0-11.7-1.4-17.8-4.2c-6.2-2.8-11.8-6.5-16.9-11c-5.1-4.5-9.4-9.6-12.7-15.4c-3.4-5.7-5-11.5-5-17.4c0-8.9,0.8-16.5,2.5-23
			c1.6-6.4,4.3-11.8,8-16.3c3.7-4.4,8.5-8.1,14.4-11c6-2.9,13.3-5.2,21.9-7l2.4-0.2c7.8-0.6,15.1,0.5,21.8,3.4
			c6.7,2.9,12.6,6.9,17.6,12.1c5,5.2,8.9,11.3,11.8,18.4c2.9,7.1,4.3,14.5,4.3,22.3C925.8,618.6,924.4,625.2,921.5,631.2z
			 M871.9,561.5c-1.6,0-3.1,0.1-4.6,0.3v92.3c1.5,0.3,3,0.5,4.6,0.7L871.9,561.5z M882.8,654.3c3.3-0.6,6.3-1.6,9-2.9
			c4.8-2.4,8.7-5.5,12-9.5c3.2-4,5.7-8.6,7.3-13.8c1.6-5.2,2.5-10.8,2.5-16.6c0-6-0.9-11.9-2.6-17.9c-1.8-6-4.4-11.3-7.9-16.1
			c-3.5-4.8-7.7-8.6-12.8-11.5c-2.3-1.3-4.8-2.4-7.5-3.1V654.3z M879.6,562c-1.5-0.3-3-0.4-4.6-0.5v93.4c0.1,0,0.2,0,0.3,0
			c1.5,0,2.9-0.1,4.3-0.2L879.6,562z M864.2,562.3c-2.8,0.6-5.5,1.4-7.9,2.6c-4.8,2.3-8.9,5.4-12.2,9.3c-3.3,4-5.8,8.5-7.6,13.7
			c-1.8,5.2-2.7,10.7-2.7,16.5c0,6.1,0.9,12.1,2.7,18.1c1.8,6,4.5,11.4,8.1,16.2c3.6,4.8,8,8.7,13.1,11.7c2,1.2,4.1,2.1,6.4,2.8
			L864.2,562.3z"/>
		<path d="M1034.3,560.3c-0.1-0.1-0.2,0-0.5,0.1c-1.7,0.5-3.5,1.1-5.4,1.8c-1.9,0.7-2.8,2-2.8,3.8l0.2,44.1v7.5
			c0,7.1-0.1,14.1-0.4,20.9c-0.2,6.9-0.7,13.8-1.3,20.8c0,0.2-0.2,0.5-0.5,0.6c-0.3,0.2-0.6,0.2-0.8-0.1c-5.9-5-11.7-10.4-17.6-16.2
			c-5.9-5.8-11.6-11.7-17.3-17.7c-5.7-6-11.2-12.1-16.7-18.3c-5.5-6.2-10.7-12.2-15.7-18c-1.7-1.8-3.2-3.6-4.6-5.2
			c-1.3-1.6-2.9-3.4-4.6-5.2c-0.4,3.3-0.5,6.5-0.5,9.5c0,4.6,0.1,9.3,0.2,13.9c0.1,4.6,0.3,9.3,0.5,13.9c0.2,4.6,0.4,9.3,0.5,13.9
			c0.1,4.6,0.2,9.3,0.2,14.1c0,2.1,0.2,3.7,0.5,5c0.4,1.3,0.8,2.3,1.4,3c0.5,0.7,1.2,1.3,2,1.6c0.8,0.3,1.6,0.5,2.5,0.6
			c1,0.2,1.9,0.5,2.9,0.8c1,0.3,2.1,0.9,3.5,1.9c0.2,0.2,0.3,0.5,0.3,0.8c-0.1,0.3-0.3,0.5-0.6,0.5c-1.2-0.1-2.4-0.2-3.6-0.4
			c-1.2-0.1-2.3-0.2-3.6-0.4c-1.7-0.2-3.4-0.4-5.2-0.5c-1.8-0.1-3.5-0.2-5.2-0.2c-2.2,0-4.4,0.2-6.8,0.5c-2.3,0.3-4.6,0.6-6.9,1
			c-0.4,0.1-0.6,0-0.8-0.4c-0.2-0.4-0.2-0.7,0.1-0.9c1-0.9,1.9-1.5,2.7-2c0.8-0.5,1.6-0.9,2.3-1.3c1.5-0.7,2.8-1.7,3.9-3
			c1.2-1.3,1.7-3.3,1.7-6.1v-85.6l1.5-2.9c0.1-0.2,0.3-0.4,0.5-0.5c0.2-0.1,0.4-0.1,0.5,0.2c13.3,13.8,26.2,27.3,38.6,40.7
			c12.4,13.3,25.1,27.2,37.9,41.4v-0.5c0-5.6,0-11.2-0.1-16.6c-0.1-5.5-0.2-11.1-0.3-16.8c-0.1-5.2-0.2-10.8-0.4-16.7
			c-0.1-5.9-0.2-11.5-0.2-16.7c0-2.1-0.2-3.7-0.6-5c-0.4-1.3-1-2.3-1.7-2.9c-0.7-0.7-1.5-1.1-2.4-1.4c-0.9-0.2-1.7-0.4-2.6-0.5
			c-1-0.1-1.9-0.3-2.7-0.5c-0.8-0.2-1.5-0.6-2.1-1.2c-0.2-0.2-0.3-0.5-0.1-0.9c0.2-0.4,0.4-0.5,0.6-0.4c2.8,0.4,5.4,0.5,7.9,0.5
			c2.6,0,5.1,0,7.7,0c1.6,0,3.2,0,4.8-0.1c1.6-0.1,3.3,0,5,0.1c0.6,0,1.3,0,2,0.1c0.7,0.1,1.4,0.1,2,0.1l0.4,1.5
			C1034.5,560.3,1034.4,560.3,1034.3,560.3z"/>
		<path d="M1103.5,649.1c-0.4,2.6-0.7,5.3-1.1,8.1c0,0.4-0.2,0.5-0.7,0.5l-0.2,0.2c-1,0.4-1.8,0.5-2.4,0.5c-2.8,0-5.6,0-8.5-0.1
			c-2.9-0.1-5.7-0.1-8.5-0.1c-2.4,0-4.8,0-7.1-0.1c-2.3-0.1-4.7-0.1-7.1-0.1c-3.3,0-6.6,0-10,0.1c-3.4,0.1-6.7,0.2-10,0.3v-1.5
			c1.8,0,3.3-0.4,4.5-1.2c1.2-0.8,2-1.8,2.7-3c0.6-1.2,1-2.6,1.2-4.1c0.2-1.5,0.3-3.1,0.3-4.7V568c0-2.4-0.6-4-1.7-4.8
			c-1.2-0.7-2.4-1.3-3.7-1.8c-0.7-0.2-1.6-0.5-2.5-0.8c-0.9-0.3-1.9-0.8-2.8-1.4c-0.2-0.2-0.3-0.5-0.3-0.8c0.1-0.3,0.3-0.5,0.6-0.5
			h52.1c0.5-0.2,1-0.5,1.6-0.6c0.6-0.2,1.1-0.4,1.6-0.6c0.6-0.2,0.9,0,0.9,0.7c-0.4,3.2-0.8,6.1-1.4,8.9c-0.5,2.7-1.1,5.5-1.7,8.3
			c-0.1,0.4-0.4,0.5-0.8,0.5c-0.4-0.1-0.6-0.3-0.6-0.6c-0.2-4.3-1.7-7.1-4.4-8.4c-2.7-1.3-6-2-9.9-2H1069v37.5h21.2
			c0.6,0,1.4-0.2,2.4-0.5c1-0.4,1.9-0.7,2.9-1.1c1.3-0.7,2.7-1.3,4-1.6c0.6-0.2,0.9,0,0.9,0.7c-0.1,1.5-0.3,3-0.5,4.8
			c-0.2,1.7-0.4,3.3-0.6,4.8c-0.2,1.5-0.4,3-0.5,4.6c-0.1,1.6-0.3,3.1-0.5,4.6c0,0.4-0.2,0.6-0.5,0.7c-0.3,0.1-0.6,0.1-0.8-0.2
			c-0.6-0.6-1-1.2-1.2-1.8c-0.2-0.6-0.4-1.3-0.6-2c-0.2-0.7-0.5-1.5-0.7-2.2c-0.2-0.7-0.7-1.4-1.3-2c-0.6-0.6-1.7-1.1-3.4-1.4
			c-1.6-0.3-3.4-0.5-5.3-0.7c-1.9-0.2-3.7-0.3-5.6-0.3c-1.8,0-3.2,0-4.2,0h-5.5v37.7c1.8,2.7,4.4,4.7,7.8,6.1
			c3.4,1.4,6.6,2.1,9.8,2.1c4.3,0,7.9-1.1,10.9-3.4c3-2.3,5-5.5,5.9-9.6l1.5,0.4C1104.4,643.8,1103.9,646.5,1103.5,649.1z"/>
		<path d="M1171,643.7c-2.3,3.5-5.1,6.6-8.6,9.1c-3.5,2.5-7.3,4.5-11.5,5.9c-4.2,1.4-8.2,2.1-12,2.1c-1.8,0-3.7-0.2-5.8-0.6
			c-2-0.4-3.8-1.1-5.5-2.1c-1.6-1-3-2.2-4-3.7c-1-1.5-1.6-3.4-1.6-5.8c0-1.5,0.2-2.9,0.5-4.4c0.3-1.5,0.6-2.9,0.8-4.2l0.9-4.4
			c0-0.4,0.2-0.5,0.7-0.5c0.5,0,0.7,0.2,0.7,0.5v2.7c0,2.6,0.5,4.8,1.6,6.8c1.1,2,2.5,3.6,4.2,5c1.7,1.4,3.7,2.4,5.9,3.1
			c2.3,0.7,4.5,1,6.9,1c2.2,0,4.4-0.4,6.8-1.1c2.3-0.7,4.4-1.8,6.3-3.2c1.9-1.4,3.4-3.1,4.7-5.1c1.2-2,1.8-4.2,1.8-6.7
			c0-2.3-0.5-4.6-1.6-6.9c-1.1-2.3-2.6-4.5-4.4-6.9c-1.8-2.3-3.9-4.6-6.2-6.9c-2.3-2.3-4.7-4.6-7.1-6.9c-2.6-2.4-5.1-4.9-7.7-7.4
			c-2.6-2.5-4.8-5.1-6.8-7.7c-2-2.6-3.5-5.3-4.8-8c-1.2-2.7-1.8-5.4-1.8-8.2c0-4.1,1.2-7.7,3.5-10.7c2.3-3,5.2-5.4,8.6-7.3
			c3.4-1.9,7.1-3.3,11.2-4.2c4-0.9,7.7-1.4,11.2-1.4c4.9,0,9.3,0.6,13.3,1.8c0.4,0.2,0.6,0.5,0.6,0.7c-0.5,6-1.2,12.1-2.2,18.5
			c-0.1,0.4-0.4,0.5-0.7,0.5c-0.4,0-0.6-0.2-0.7-0.5c-1-4.3-2.8-7.9-5.6-11c-2.7-3-6.4-4.6-10.9-4.6c-4.6,0-8.5,1.5-11.6,4.5
			c-3.1,3-4.7,6.8-4.7,11.4c0,2.4,0.5,4.7,1.6,6.8c1,2.1,2.4,4.1,4,6c1.6,2,3.6,3.9,5.8,5.8c2.2,1.9,4.4,3.8,6.8,5.8
			c2.6,2.1,5.1,4.2,7.6,6.5c2.5,2.3,4.7,4.6,6.7,7.1c1.9,2.5,3.5,5.2,4.8,8c1.2,2.8,1.8,5.9,1.8,9.1
			C1174.4,636.3,1173.2,640.2,1171,643.7z"/>
	</g>
	<path d="M519,626.6c-1.6,3.4-3.8,6.4-6.5,8.9c-2.7,2.5-5.8,4.4-9.4,5.8c-3.6,1.4-7.3,2.1-11.3,2.1c-3.3,0-6.6-0.8-10.1-2.4
		c-3.5-1.6-6.7-3.7-9.6-6.2c-2.9-2.6-5.3-5.5-7.2-8.7c-1.9-3.3-2.9-6.5-2.9-9.9c0-5.1,0.5-9.4,1.4-13c0.9-3.6,2.4-6.7,4.5-9.2
		c2.1-2.5,4.8-4.6,8.2-6.2c3.4-1.6,7.6-3,12.5-4l1.4-0.1c4.4-0.3,8.6,0.3,12.4,1.9c3.8,1.6,7.1,3.9,10,6.9c2.8,2.9,5.1,6.4,6.7,10.4
		c1.6,4,2.4,8.2,2.4,12.7C521.4,619.5,520.6,623.2,519,626.6z M490.8,587c-0.9,0-1.7,0.1-2.6,0.2v52.5c0.8,0.2,1.7,0.3,2.6,0.4
		L490.8,587z M497,639.7c1.9-0.3,3.6-0.9,5.1-1.7c2.7-1.4,5-3.2,6.8-5.4c1.8-2.3,3.2-4.9,4.2-7.8c0.9-3,1.4-6.1,1.4-9.5
		c0-3.4-0.5-6.8-1.5-10.2c-1-3.4-2.5-6.4-4.5-9.1c-2-2.7-4.4-4.9-7.3-6.5c-1.3-0.8-2.7-1.4-4.2-1.8V639.7L497,639.7z M495.2,587.3
		c-0.8-0.1-1.7-0.2-2.6-0.3v53.1c0.1,0,0.1,0,0.2,0c0.8,0,1.6,0,2.4-0.1L495.2,587.3z M486.4,587.4c-1.6,0.3-3.1,0.8-4.5,1.5
		c-2.7,1.3-5,3.1-6.9,5.3c-1.9,2.3-3.3,4.9-4.3,7.8c-1,2.9-1.5,6.1-1.5,9.4c0,3.5,0.5,6.9,1.6,10.3c1,3.4,2.6,6.5,4.6,9.2
		c2,2.7,4.5,5,7.4,6.7c1.1,0.7,2.4,1.2,3.6,1.6L486.4,587.4z"/>
</g>
</svg>
