<?xml version="1.0" encoding="utf-8"?>
<!-- Generator: Adobe Illustrator 18.1.1, SVG Export Plug-In . SVG Version: 6.00 Build 0)  -->
<!DOCTYPE svg PUBLIC "-//W3C//DTD SVG 1.1//EN" "http://www.w3.org/Graphics/SVG/1.1/DTD/svg11.dtd">
<svg version="1.1" id="Layer_1" xmlns="http://www.w3.org/2000/svg" xmlns:xlink="http://www.w3.org/1999/xlink" x="0px" y="0px"
	 viewBox="0 0 1200 1200" enable-background="new 0 0 1200 1200" xml:space="preserve">
<g>
	<g>
		<path d="M926.2,344c-15.2-8.5-20.2-30.6-38.5-38.5c-17.1-7.4-44-6.7-68-13.6c-33.8-9.7-63.7-18.2-90.6-24.9
			c-21,12.5-61.9,17.2-95.1,13.6c-36.9-4-63.9-25.3-81.5-36.2c6.8,21.8,22.9,34.4,34,52.1c-40.7,12.4-97.2-1.6-122.3-11.3
			c11,14.7,25.1,26.3,38.5,38.5c-31.3,19.1-97.2,13.2-126.8,4.5c12.7,12.9,27.9,23.5,43,34c-29.7,13.3-84.5,34.4-120.1,13.6
			c9.8,19.6,35.2,23.7,54.4,34c-28.9,18.8-86.6,22.1-124.6,18.1c13.4,12.3,30.5,20.9,45.3,31.7c-24.9,16.2-77.7,24.9-111,18.1
			c12.1,13.6,28.8,22.6,45.3,31.7c-18.3,20.5-67.4,32.5-95.1,22.7c19.7,22.6,47.6,37,79.3,47.6c-0.5,6-19.5,13.7-9.1,15.9
			c7.7-0.6,10.9-5.7,20.4-4.5c-8.2,17.5-3.1,48.2-15.9,61.2c19.8-5.9,51.2-12.2,72.5-9.1c-14.5,19.6,3.3,57.6-13.6,74.7
			c18.9-8.3,47.8-6.5,70.2-11.3c-2.1,27.4-1.9,57-13.6,74.7c18.5-14.7,62.5-3.9,83.8-15.9c-10.4,21.6,2.9,55-9.1,72.5
			c17.5-12.7,48-2.1,70.2-6.8c-3,57.4,13.4,95.4,38.5,124.6c0.9-43.6,8.2-80.9,36.2-97.4c4.6,15.8,10.5,30.2,22.6,38.5
			c1.8-42.7,8.1-81,34-99.7c5.2,18.2,14.4,32.4,27.2,43c-10.1-45.8,1.4-94.5,31.7-113.3c4.5,18.1,11.4,33.9,22.6,45.3
			c-7.8-40.9,6.5-77.6,27.2-97.4c4.8,12.6,10.7,24,20.4,31.7c-0.8-53,44.2-132.9,108.7-117.8c25.5,6,34.1,39.9,15.9,56.6
			c11.1-4.1,25.3-17,40.8-9.1c-5.8,10.5-6.1,30.4,2.3,38.5c13-33.8,63.1-30.5,61.2-79.3c15.3-12,35.4-30.8,27.2-58.9
			c-19.2,1.2-22.1,18.7-38.5,22.6c-5.6-23-20.6-17.7-29.4-9.1c1.8-12.3-3.5-17.7-6.8-24.9c-12.3,1.8-22,16.6-34,11.3
			c1.9-15.5-3.1-24.1-9.1-31.7c-7.6,2.9-9.3,11.9-22.6,9.1c4.4-5.1,2-17,0-22.7c-8.7-1.3-14.8,9.2-27.2,4.5
			c-16.2-6.1-16.6-33.8,4.5-36.2c3.3,11,8.1,20.6,18.1,24.9c8.8-2.5,12.9-19.3,22.7-13.6c6,9,9.2,21,22.6,22.6
			c9.5-4.9,12.1-16.6,24.9-18.1c2,8.5,6.5,14.7,6.8,24.9c17,0.4,13.7-19.5,34-15.9c4,4.3,1.6,15,2.3,22.6
			c21.1,5.2,32.3-10.5,40.8-10.4c-0.2,14.2-9.6,30.3-13.6,30.3c7.6,0,15.1,0,22.7,0c12.7,0,24.5-23.2,29.4-41.6
			c36.8-23.6,62.5-58.8,74.7-106.9C1025.6,374.9,989.8,345.3,926.2,344z M699.7,430.1c-21-2.6-41.4,9.8-58.9,9.1
			c-54.3-2.5-71.6-63.1-120.1-81.5c-1-7.8,0.9-12.7,2.3-18.1c13.1-8.8,43.2-0.6,56.6-9.1c1.2-8-8-5.6-6.8-13.6
			c31.3,9.3,59.8-20.8,90.6-4.5c2.8-5.4,4.6-12,9.1-15.9c6.3,22.1,39.5,33.6,47.6,61.2c-23.1-15.9-32.6-47.2-86.1-38.5
			c-22.5,3.7-48.5,23.4-77,27.2c-12.5,1.7-22.8-6.9-31.7,6.8c49.9,13.5,62,71.2,113.3,74.7c29.1,2,68.6-18.6,86.1,11.3
			C716.7,440.7,709,431.3,699.7,430.1z M867.3,371.2c-11.5-2.8-19.7-9-31.7-11.3c6.8-5.2,27.1-6.7,36.2-2.3
			C873.6,365.5,869.3,367.2,867.3,371.2z"/>
	</g>
</g>
</svg>
