<?xml version="1.0" encoding="utf-8"?>
<!-- Generator: Adobe Illustrator 18.1.1, SVG Export Plug-In . SVG Version: 6.00 Build 0)  -->
<!DOCTYPE svg PUBLIC "-//W3C//DTD SVG 1.1//EN" "http://www.w3.org/Graphics/SVG/1.1/DTD/svg11.dtd">
<svg version="1.1" id="Layer_1" xmlns="http://www.w3.org/2000/svg" xmlns:xlink="http://www.w3.org/1999/xlink" x="0px" y="0px"
	 viewBox="0 0 1200 1200" enable-background="new 0 0 1200 1200" xml:space="preserve">
<g>
	<g id="N9DqLF_2_">
		<g>
			<path fill-rule="evenodd" clip-rule="evenodd" d="M471.1,119.4c-5.9,15.5-6.8,37.6,13.9,40.5c25.3,3.6,51.5-26,83.1-19.2
				c1.9,3.8,0.7,8.7-1.1,11.7c-5.5-0.5-7.2-4.9-11.7-6.4c-12.4,3.9-26.6,5.4-40.5,10.7c-7.8,2.9-14.7,8.6-23.4,9.6
				c-21.2,2.3-36-3.9-45.8-21.3c1.7-4,0.9-10.5,1.1-16c4.1,6.9,8.3,13.7,13.9,19.2C459.3,134,463.1,124.6,471.1,119.4z"/>
			<path fill-rule="evenodd" clip-rule="evenodd" d="M113,644.8c7,3.6,11.8,9.5,19.2,12.8c-7.6-28.3-15.2-68.7-8.5-101.2
				c18.3,3,24.8-5.8,35.2-10.7c-2.9,10.2-4.1,22.2-4.3,35.2c-2.8,0-5.7,0-8.5,0c4.1,6.2,11,16,5.3,25.6c-3.7-0.2-4-3.8-7.5-4.3
				c2.4,7.9,9.6,11,8.5,22.4c0.1,4.8-3.1-1.5-5.3-1.1c2.1,6,9.7,6.6,7.5,17.1c-3-0.2-4.4-2-7.5-2.1c2.4,5.1,12.5,11.6,10.7,24.5
				c-2.5,0.3-4.1-0.2-5.3-1.1c2.8,5.7,11.1,5.9,11.7,13.9c-2.1,0-4.3,0-6.4,0c5.4,4.9,13,7.6,17.1,13.9c0.3,2.5-3.1,1.2-3.2,3.2
				c8.4,0.9,15.6,2.9,18.1,9.6c-1,3.2-6.2,2.3-8.5,4.3c5.7,2.1,15.3,0.4,18.1,5.3c0.4,4-6.7,0.4-7.5,3.2c7,4.7,23.8-0.4,25.6,9.6
				c3-4.8,7.6-8.1,16-7.5c0,4.3,0,8.5,0,12.8c5-3.5,5.6-11.4,10.7-14.9c2.5,0,5,0,7.5,0c0,2.1,0,4.3,0,6.4c2.4-3,2.6-8,3.2-12.8
				c2.4-1.6,7.3,1.4,10.7,2.1c2-2.3,0.7-7.8,1.1-11.7c2.5,0,3.1,1.8,6.4,1.1c0-5.3,0-10.7,0-16c3.7-0.9,4.1,1.6,7.5,1.1
				c0.2-3.8-4.1-12.3-6.4-17.1c1.4-2,6.8,1,9.6,1.1c-2.9-6.7-8.9-10.3-11.7-17c4.2,0.8,7.7,2.2,11.7,3.2c-0.7-9.6-12.7-7.9-21.3-9.6
				c-0.8-3.1-1.7-6.1-4.3-7.5c2.2-2.4,8.9-0.4,12.8-1.1c-0.1-10.2-19.8-0.8-18.1-12.8c-5.1,0-10.5,3.9-13.9,2.1
				c-3.1-5.4,1.9-7.7,6.4-8.5c-9.3-5.7-10.5,5.8-18.1,5.3c-4.1,0.9-1.4-5-2.1-7.5c-4.1,2.7-7.3,6.2-9.6,10.7
				c-3.9-3.2-10.9-3.3-10.7-10.7c-4.3,7.4-2.6,20.9-11.7,23.4c0-2.8,0-5.7,0-8.5c-2.8,6-4.5,13.3-12.8,13.9
				c0.6,7.6-1.3,17.6,1.1,23.4c-2,5-4.9-6-8.5-6.4c0.3,8.6,2.3,15.4,3.2,23.4c-11.4-13.8-16.9-33.6-19.2-56.5
				c15.4-23.4,22.8-54.6,60.7-55.4c-4,6.7-9.8,11.5-13.9,18.1c14-8.4,44.6-16.2,61.8-5.3c-9,2.4-22.1,0.7-27.7,6.4
				c13.7,4.1,26.7-1.8,38.4,1.1c12.9,3.2,19,17.6,24.5,27.7c-6.2-2.4-12.6-4.5-19.2-6.4c26,10.1,36.9,40.5,35.2,77.8
				c-0.8,16.7,0.6,35.6-7.5,45.8c-5.5-9.4-4.2-25.6-13.9-30.9c1.7,27.4-12.7,47.6-30.9,58.6c-1.1-7.2,4.7-16.6,5.3-25.6
				c-6.8,2.1-12,5.8-18.1,8.5c-0.3,4.3-1.8,7.4-2.1,11.7c-13,2.6-24.7,6.5-37.3,9.6c4-5.6,9.9-9.3,13.9-14.9
				c-20.4,3.2-45.1-1.7-55.4-14.9c-3.4,0.9-4.5,4-8.5,4.3c9.8,5.9,26.8,4.5,29.8,17.1c-4.1-0.9-6.8-3.2-10.7-4.3
				c4.4,7.3,12.1,11.4,14.9,20.2c-2.5-1.4-6.1-1.8-8.5-3.2c3.9,8.5,18.3,15.8,21.3,28.8c-5.4-1.4-9.1-4.4-13.9-6.4
				c5,8.8,19.9,17,24.5,29.8c-4.5-2.6-9.9-4.3-14.9-6.4c4.3,6.4,15.8,14.8,23.4,21.3c-0.3,1.4-2.7,0.9-4.3,1.1
				c10.5,9.4,22.7,17.1,29.8,29.8c-2.9,1.1-8.9-3.9-13.9-4.3c8.5,6.8,18.9,11.6,23.4,22.4c-1.8,0-3.6,0-5.3,0
				c7,6.1,15.8,10.5,21.3,18.1c-0.7,2.3-6.6,1-7.5,0c-1,2.1,4.1,7.3,6.4,9.6c0-1.8,0-3.6,0-5.3c7.6,9.8,12.6,22.2,26.6,25.6
				c4.9,8.5,18.1,15.5,29.8,10.7c2.1,2.8,4,6,5.3,9.6c25.8,14.1,55.8,29.5,88.4,41.6c20.3,7.5,40.5,14.3,70.3,11.7
				c4.5-0.4,9.3-3.5,13.9-4.3c17.9-3.2,38-0.3,57.5-4.3c19.1-3.8,41.1-13.7,60.7-20.2c19.8-6.6,41.4-16.2,54.3-25.6
				c6.4-4.7,11.6-13.2,18.1-20.2c13.2-14.3,24.6-26.3,33-45.8c1.5-27.3,14.3-44,8.5-75.7c-2.9,2.8-2.6,8.8-3.2,13.9
				c-4.9-18.2,7.1-53.3-13.9-55.4c0-2.5,0-5,0-7.5c-25.6,3.2-32.8,26.3-29.8,52.2c1.5,13.1,8.6,28.4-1.1,39.4
				c5.2,23.1-4.5,40-24.5,41.6c-1.7-3.4,7.1-9.2,7.5-18.1c0.3-6.5-2.5-11.4-6.4-16c-47.4,19.4-131.7,24.5-180.1,2.1
				c-0.3,7.1-5.5,15-6.4,23.4c-0.7,6.6,2.7,13.7,1.1,20.2c-0.8,3.5-5.6,6.7-7.5,10.7c-3.6,7.7-3.1,14.3-7.5,18.1
				c-6.5,5.7-17.8,6.4-29.8,3.2c4.8-5.3,17.6-9.1,14.9-22.4c-1-4.9-5.7-11.7-6.4-20.2c-1-11.5,0.2-21-5.3-27.7
				c-8.9-10.8-21.9-11.7-28.8-20.2c-8.8,1.4-14.2-1.9-22.4,0c-11.7,2.7-20.8,17.9-26.6,0c-9.8,0.1-11.5,8.4-13.9,16
				c-20.8-26.7,11.4-41.1,23.4-54.3c-5.9,2.3-7.4-3.2-10.7-6.4c-4.1,3-8.7,5.5-12.8,8.5c-7-25.5,18.1-28.1,34.1-34.1
				c4.5,0.5,5.7,4.2,11.7,3.2c0.3-7.1-12.2-10.5-23.4-9.6c3.2-4.6,7.1-8.5,9.6-13.9c7.8,0,15.6,0,23.4,0
				c5.7,8.6,12.1,16.3,21.3,21.3c10,18.3,24.8,41.7,45.8,51.2c20.5,9.2,54.8,10.3,81,8.5c25.6-1.7,48.5-10.8,65-19.2
				c5.9-18.7-10.3-31-17-46.9c-8.2-19.4-12.6-42.8-11.7-73.5c-16.8,2.4-21.2,20.1-33,28.8c-2.7,17.9-12.4,28.8-24.5,37.3
				c-2.5,4.6-6.1,12-11.7,16c-6.4,4.5-18.8,9.4-25.6,3.2c10.4-5.6,22.2-9.8,18.1-29.8c-63.8-17.6-106.1-56.6-137.5-106.6
				c-2.4,1.1-6.4,0.7-8.5,2.1c1.2,12.9,1,25.2-4.3,34.1c-2.2,2.3-3.4-0.1-5.3-1.1c-3.6,16-29.4,19.2-40.5,7.5
				c6.9-4.1,18.2-3.8,22.4-10.7c-10.2-9.1-13.9-28.9-3.2-40.5c6.3-57.1-44.6-57-65-87.4c-14.9-2.8-15.9,8.2-27.7,8.5
				c8-12.6,13-37.1,35.2-28.8c3-3.4,3.7-9.1,7.5-11.7c3.6-0.3,6.1-1.7,10.7-1.1c-3.2-7.6-10.3-13.3-20.2-8.5
				c-3.1-18.5,37.7-21.7,41.6-4.3c3.4-0.2,4.7-2.4,8.5-2.1c4.1,2.3,5.7,7.1,7.5,11.7c8.7-5.4,3.5-25.5-10.7-21.3
				c0.6-9.4,16-3.9,24.5-5.3c8.5,3.3,14.5,14.5,11.7,25.6c0.9,3,5.5,2.3,7.5,4.3c4.8,22.9-1,42.4,4.3,62.9
				c3.2,12.4,18.3,30.3,26.6,41.6c18.9,25.4,40.6,49.6,71.4,61.8c1.5-16.7-15.5-24.2-25.6-33c-0.2-7.7-3.8-11.8-7.5-16
				c-0.3-13.2-1.6-25.4-9.6-30.9c-2.1-16.8-5.7-31.9-14.9-41.6c-0.2-2.3,3.8-0.5,5.3-1.1c1.8-25.6-9.3-38.3-30.9-40.5
				c4.4-9.1,15.8-14.7,12.8-27.7c-1.8-7.6-11-15-19.2-17.1c3.8-12.1,0.7-27.1-5.3-36.2c-5,0-9.9,0-14.9,0c-2.5-3.2,6.4-7.8,6.4-13.9
				c0.1-14.4-23.3-17.3-37.3-21.3c1.2-9.4-2-14.3-6.4-18.1c-4.9,1.5-9.1,3.7-12.8,6.4c-5.6-5.4-12.4-9.6-17-16
				c-12.7,1.5-24.6,3.8-33,9.6c-1.4,0.3-0.9,2.7-1.1,4.3c-6.1-0.3-8.3-4.5-13.9-5.3c-8.2,4.6-13.9,11.7-21.3,17.1
				c-11.7-0.6-22.2-0.2-26.6,6.4c18.7,2.4,38.2-3.8,52.2-9.6c-11.5,16.5-34.3,21.8-50.1,34.1c0,4.3,0,8.5,0,12.8
				c8-1.5,13.9-19.2,24.5-18.1c-6.6,13.3-15.4,24.4-23.4,36.2c5.5-4.8,14.6-15.3,26.6-17.1c-7.5,12-22.8,25.5-29.8,41.6
				c3.5,6.1,5.2,13.9,16,12.8c-0.9,4.8-5,6.3-6.4,10.7c6,0,12.1,0,18.1,0c-5.2,6.8-20.5,12.2-29.8,5.3c-9.7,0.6-16.3,3.4-22.4-2.1
				c7.4-1.1,9.4-7.7,16-9.6c-2-3-7.5-2.4-10.7-4.3c14.2-3,3.9-14.5-6.4-13.9c3-3.4,9.3-3.5,11.7-7.5c-2.4-1.9-6-2.5-8.5-4.3
				c3.1-1.8,9.8-0.1,7.5-7.5c-0.1-2.4-4.5-0.5-6.4-1.1c-5.3-1.2,4.3-3.7,3.2-7.5c-18.4-8.1-7.6,30.5-14.9,40.5
				c-6.8-1.5-2.3-10-2.1-14.9c0.5-11.9,1.3-26.7,1.1-35.2c-3.8-1-1.5,4.2-2.1,6.4c-2.6,0.1-5.1,0.2-6.4-1.1
				c0.6,4.3,2.1,7.9,4.3,10.7c-2.2,3.2-4.3-2.7-7.5-2.1c-5.4,4.4-1,7.9,1.1,12.8c-2.5-0.3-2-3.7-5.3-3.2c-2,0.1-0.7,3.5-3.2,3.2
				c0.8,6.3,6.2,8.1,9.6,11.7c-2.3,2.2-7.4-1.8-11.7-1.1c-2.4,6.4,2.8,9.4,7.5,11.7c-1.9,1.3-7-0.8-10.7,1.1
				c3.2,6.4,10.4,8.8,16,12.8c-10.5,10-13.9-9.9-27.7-3.2c-4-7-4.8-17.2-4.3-28.8c11.6-9.7,8.3-34.3,18.1-45.8
				c-12-31.5,16.8-53.4,29.8-73.5c4.8-21.8,11-42.3,27.7-52.2c5.6-10,7.9-23.3,8.5-38.4c13.8,10.2,13.3,39.7-1.1,49
				c0.7,3.6,3.3,5.2,4.3,8.5c-3.7,9.2-18.8,12.3-12.8,27.7c18.2-8.5,33.7-28.8,51.2-41.6c5.3,0,10.7,0,16,0
				c-6.4,5.7-15,9.2-22.4,13.9c0,4.6,0,9.2,0,13.9c5.4-1.3,9.3-4.2,14.9-5.3c5.8-16.6,18.5-26.3,41.6-25.6c1.3,2.2,3.1,4,5.3,5.3
				c-9.4,5.2-20,9.2-29.8,13.9c10.1-0.3,16.3,1.5,24.5-1.1c8.4-2.6,12.4-12.3,19.2-13.9c9.6-2.2,20.3,3,33,2.1
				c-10.7,3.9-21.4,7.7-33,10.7c5.4,4.2,14.1,5,20.2,8.5c8.9-5.7,34.2-11.7,41.6,0c-6.3,3.7-18.3,1.6-25.6,4.3
				c7.7,12.8,28,8.9,44.8,6.4c5.3,2.2,5.1,9.9,9.6,12.8c-5,2.5-14.5,0.4-21.3,1.1c-1.6,4.8,5.1,9.6,6.4,14.9c13,0.5,23,4,35.2,5.3
				c1.9,4.1,2.8,9.3,4.3,13.9c-8.2,0-13.1-3.2-21.3-3.2c3.9,11.7,14.1,17.2,26.6,20.2c-1.6-9,6.8-26.3,2.1-41.6
				c4.6,1.4,6.7,5.4,10.7,7.5c1.7-2.2,0.7-7.1,2.1-9.6c-0.3-2.5-2.9,1.2-3.2,2.1c-1.7-4.2-8.3-7.7-8.5-13.9
				c-0.3-7.2,8.7-12.5,11.7-21.3c1.2-3.6-0.1-8.6,1.1-12.8c2.2-8.2,7.1-14.4,7.5-20.2c0.8-11.9-2.7-20.4-16-26.6
				c4.3-3.7,10.5-1.8,12.8,2.1c11.9-22.2-8.4-34.8-13.9-52.2c-3.2-1.4-8.2-1.1-12.8-1.1c-6.3-9.3-13.9-17.4-20.2-26.6
				c-8.6,2.8-18.1,4.6-26.6,7.5c8.2,7,18.6,11.9,27.7,18.1c-18.9,2.4-39,3.6-56.5,7.5c6,6,17.8,6.3,29.8,6.4
				c-11.7,9.2-27.3,14.6-42.6,20.2c6.8,1.5,20.4-1.6,28.8,1.1c-13.4,10-31.5,15.4-46.9,23.4c-1.8,10.2-1.2,18.1,6.4,21.3
				c-2.3,2.3-6.2,3-9.6,4.3c-2.5-3.5-4.6-7.5-7.5-10.7c-3.5,1.1,2.3,11.6-4.3,9.6c-5.3-0.9,0.4-6.7,0-9.6
				c-10.2-1.6-21.9-1.6-25.6-9.6c7.1-3.2,15.6,1.4,24.5,0c2.2-1.7,2.7-5.1,4.3-7.5c0.2-4.1-4.4-3.5-6.4-5.3c2.5-2.4,10-0.9,12.8,0
				c8.1-9.3,15.2-19.6,18.1-34.1c-14.2,8.2-34.6,27.8-52.2,41.6c-11,8.6-20.7,24.1-43.7,19.2c-8.9-1.9-12.7-9.5-18.1-17.1
				c4.8-3.3,11,1.1,17.1,0c-0.5-6.3-9.4-13.3-11.7-21.3c3.5-3.3,1.9-11.6,6.4-13.9c-0.5,25.6,14.3,45.6,40.5,38.4
				c10-2.7,18.8-19.9,26.6-27.7c13.7-13.6,27.1-24.6,33-37.3c-7.8-1-12.2,1.3-17,3.2c-0.8,4.7,1.4,6.4,1.1,10.7
				c-1.7-1.8-4.5-2.6-8.5-2.1c-1.1,8.5-6.7,12.5-8.5,20.2c-2.8-3.6-2.9-9.9-8.5-10.7c-3.6,2.7,0.5,13.8,0,20.2
				c-4.5-3.7-7.2-9.1-7.5-17.1c-3.5,0.4-4.6,3.2-6.4,5.3c1.5,4.9,3,10.4,1.1,16c-3.7-2.3-4.2-7.8-8.5-9.6c-1.1,1.4-2.8,2.1-4.3,3.2
				c1.6,8.7,6.7,13.9,8.5,22.4c-8.9-3.6-14.6-10.3-19.2-18.1c-7.5,1.1-11.8-1-13.9-5.3c6.5-12.3,11.7-26,30.9-25.6
				c11.3-7.9,19.2-19.1,33-24.5c-0.8-4.9-0.4-11-2.1-14.9c25-15.9,58.5-23.2,72.5-50.1c23.5-8.5,46.8-17.2,56.5-39.4
				c-0.8,20.2-18.9,32.2-29.8,45.8c7.4,6.9,17.6-9.3,30.9-1.1c-3.8,4.4-10.3,6-14.9,9.6c8.9,4.6,22.2,5.2,32,1.1
				c5.1,4.1,10.1,8.4,14.9,12.8c-1.8,2.4-8.1,0.4-11.7,1.1c1.4,4.7,5.4,6.7,8.5,9.6c20.7,0.7,33,9.7,38.4,25.6
				c-7.6-3.5-11.8-12-22.4-9.6c7.2,11.3,18.6,18.4,26.6,28.8c2.5,0,5,0,7.5,0c9.5,13.1,22.2,35.6,12.8,57.5
				c-4.7-11.3-7.5-24.5-16-32c-2.6,26.1,8,38.9,6.4,63.9c-8.7-0.1-5-12.7-13.9-12.8c-2.5,6.4-0.4,17.4-1.1,25.6
				c17.9-1,27.6-19.2,29.8-39.4c14.8,12,36-3.6,29.8-22.4c8.1,2.2,16.8,3.8,24.5,6.4c6.5-1.7,5.5-10.8,5.3-19.2
				c19.4,1.3,34.9-1.4,35.2-19.2c4.1-2.6,8.2-5.3,12.8-7.5c-3.1-16.9,13.3-18,12.8-28.8c-0.3-5.4-6.7-6-8.5-11.7
				c-2.4-7.6,1.7-12.6,0-22.4c-11.9-9.4-23.7-18.9-36.2-27.7c3.7,15.1,15,22.7,24.5,32c-22.9,2.3-28.7-21.7-56.5-18.1
				c7.4,8.9,17.7,15,26.6,22.4c-9.6-3.9-27.3-8.9-45.8-7.5c7.2,11.7,25.1,12.5,37.3,19.2c-18-0.2-55.2-21.3-71.4-3.2
				c-0.1,5.1,7.5,2.5,7.5,7.5c-7.4,6.5-15.8-3.9-21.3-6.4c-0.7,3.9,1.4,10.6-1.1,12.8c-11.3-3.1,0.6-22.9-9.6-26.6
				c2.7-1.3,5.9,6.1,9.6,7.5c2.9-1.4,5.7-2.9,8.5-4.3c-1.3-1.5-3.7-2-6.4-2.1c0.3-3.9-0.9-9.4,1.1-11.7c2.8,4.3,4.8,9.4,9.6,11.7
				c1.8-3.9,1.8-15.2,0-19.2c3.8-0.2,5.3,11.1,8.5,14.9c2.3-1.7,6.6-1.2,5.3-6.4c1-3.9-4.6-1.1-5.3-3.2c0-3.2,0-6.4,0-9.6
				c5.5,3.4,6.6,11.2,13.9,12.8c4.9-2.7-0.6-9.8-1.1-13.9c1.4-2.5,10.6,4.8,9.6,11.7c2-0.5,2.7-2.3,5.3-2.1
				c-0.6-5.1-2.4-8.9-4.3-12.8c1-3.8,7.2,4.5,9.6,6.4c16.2-5.6,13.7-27.2-3.2-29.8c-9.7-1.5-19.8,2.2-29.8,3.2
				c-1.5,1.3-2,3.7-2.1,6.4c-2.8-1.1-0.6-7.2-6.4-5.3c-3.8,2.3-4.5,7.6-6.4,11.7c-3.6-2.8-0.9-11.9-7.5-11.7
				c-2,3.6,0.3,9.9-5.3,13.9c-2.5-2.2-0.4-8.8-1.1-12.8c-7.5-1.4-15.6-2.2-21.3-5.3c-0.6-1.9,1.3-6.3-1.1-6.4
				c11.2-12.3,31.8-3.1,51.2-3.2c6-5.7,17.6-9.8,27.7-5.3c15.9-33.9,50.4,5.4,82.1-2.1c8.3-2,14.1-14.2,24.5-13.9
				c7.7,0.2,14.7,8.2,22.4,9.6c20.9,3.7,35.1-6.7,54.3-12.8c-2.6,5.6-7.7,8.6-10.7,13.9c-18.7,4.8-36.2,16.4-61.8,10.7
				c-3.3,2-7.4,3.2-10.7,5.3c-7.6-2-18.4-0.8-25.6-3.2c-0.2,3,6,8.9,13.9,7.5c-2,13.8,8.2,15.2,13.9,21.3
				c-2.8-8.2-11.6-10.4-10.7-22.4c19.4,7.9,41.2,13.5,50.1,32c-6.5,0.8-14.6-6-21.3-8.5c4.9,9,8.7,19,20.2,21.3
				c6.1,10.9,10.7,23.4,13.9,37.3c-5.9-7.9-10-17.8-19.2-22.4c3.4,20.3,16.1,49.5,5.3,70.3c-4.7-7-0.1-23.4-9.6-25.6
				c-9.5,9.9-3.1,24.4-4.3,36.2c-1.2,12.4-10.9,19.7-14.9,28.8c-1.8-9.2,3-21.2,3.2-32c-4.9,3.6-8.8,8.2-12.8,12.8
				c2,22.6-7,34.2-21.3,40.5c2.6-10.2,6.9-18.6,9.6-28.8c-5.1,0.6-12.7,7.9-19.2,10.7c2.1,24.8-12.4,33.1-24.5,43.7
				c1.1-9.9,9.6-21.6,12.8-33c-5.6,1.5-13.4,10-20.2,13.9c2.2,25.6-14.5,32.4-27.7,42.6c1.7-10,9.4-23.3,12.8-35.2
				c-10,2.1-8.8,15.3-22.4,13.9c0.5,16.8-5.4,27.3-12.8,36.2c-2.1-5.2,2.5-17.3-2.1-22.4c-6.3,0.8-8.1,6.2-11.7,9.6
				c3.7,17.4,0.5,29.9-1.1,50.1c-5.6-6.5-9-15.2-7.5-28.8c-21.9,9.4-5.1,38.4,2.1,56.5c-10.2-1.6-15.1-8.3-21.3-13.9
				c-6.6,26.9,27.9,21.8,30.9,42.6c-9.5-0.2-20.1-8.3-28.8-12.8c1.2,9.1,10.3,19.5,16,27.7c17.1,2.7,22.2-10.5,20.2-23.4
				c8.2,10.4,21.1,34.8,39.4,21.3c0.3-6-1.5-9.9-3.2-13.9c8.6,18.8,45.7,14.3,52.2-9.6c2.8-36.9-13.8-54.4-28.8-73.5
				c-21.1-2.5-34.9-1.4-46.9,8.5c8.8-10.9,14.8-25.3,25.6-35.2c6.2-5.7,17.2-9.9,26.6-16c8.4-5.5,17.2-13.8,25.6-17.1
				c11.4-4.4,51.4-11.3,67.1-12.8c18.5-1.8,39.6,2.1,60.7,3.2c10.4,0.5,20.7,0.4,29.8,2.1c20,3.7,40.7,16.8,59.7,24.5
				c21.1,8.6,40.8,16.3,59.7,23.4c20.5,19.8,42.6,41.9,65,62.9c7.3,6.8,17.1,12.7,22.4,20.2c5.6,8,10.1,21.2,14.9,32
				c9.7,21.9,18.3,41.9,28.8,65c4.8,10.7,12.7,21.2,14.9,30.9c1.9,8.2,1.5,18.9,2.1,27.7c1.9,28,4,59.1,6.4,87.4
				c1.7,19.8-12.4,45.9-20.2,67.1c-7.7,20.8-11.5,42-20.3,59.7c-4.4,8.8-12.5,19.2-19.2,28.8c-13.3,19-25.8,35.9-39.4,55.4
				c-6.9,9.9-11.5,21.8-18.1,28.8c-7.2,7.6-19.8,14.8-29.8,22.4c-28.9,21.9-58.7,43.7-88.4,66.1c-20,15.1-46.8,21.9-71.4,32
				c-25.8,10.6-50.1,23.2-72.5,30.9c-11.7,4.1-34.9,3.8-50.1,5.3c-26.4,2.6-52.8,3.6-77.8,7.5c-4.6,0-9.2,0-13.9,0
				c-7.4-3.2-18-3.3-25.6-6.4c57.6-4.4,121-21.4,175.8-34.1c18.8-4.3,38.5-9.9,42.6-26.6c2.4-9.6-1.8-21.5,0-29.8
				c4.8-3,9.8-5.9,14.9-8.5c2.6-0.4-0.6,4.9,3.2,3.2c35.1-10.8,73.9-17.7,93.8-43.7c4.5-18.9-5-31.5-14.9-39.4
				c7.6-7,19.2-15,30.9-24.5c9.7-7.9,24-16.2,29.8-24.5c12.3-17.6,12.9-55.4-4.3-67.1c-6.3,2.7-17.5,4.7-25.6,2.1
				c5.7-9.3,22.8-19.8,24.5-40.5c2.5-29.3-2.7-65.8-26.6-68.2c-8.9-0.9-16.2,6.3-27.7,5.3c2.4,9.4,9.9,22.3,3.2,34.1
				c14.7,12.2,30.4,37.9,19.2,62.9c-5.3-8.6-11.7-21.6-19.2-24.5c11.7,22.2,25.3,68.6,4.3,89.5c-10.8-6.6-4.8-30-18.1-34.1
				c8.9,17,8.9,48.8-5.3,59.7c-1.2,11.3-0.7,24.2-4.3,33c-6-11.9,0.5-35.8-14.9-35.2c17,34.5-20.2,51.4-25.6,82.1
				c-4.6-9.1-5.4-25.8-7.5-34.1c-4.2,9-4,22.3-5.3,34.1c-11.4,9.6-18.7,28.9-35.2,29.8c0.1-8.1,5.3-16.7,3.2-23.4
				c-2.5,2.8-6.7,4-9.6,6.4c2.5,13.7-5.8,21-12.8,29.8c-8.8,11.1-13.1,17.5-32,17c0-7.4,3.6-16.9,1.1-23.4
				c-2.5,8.1-6.8,14.5-6.4,25.6c-9.1,5.7-14.5,11.5-28.8,7.5c-13,9-27.4,22.3-39.4,28.8c1.2-12.6,6.5-21.2,10.7-30.9
				c-11.7-0.3-10.7,12-14.9,19.2c-31.4,3.1-54.3,20.3-77.8,27.7c-3.6-24.6,18-23.9,25.6-37.3c-18.9-4.9-20.8,18.4-34.1,22.4
				c-3.5,1-8.1-0.2-11.7,0c-14.8,0.8-31.5,3.8-46.9,3.2c1-14.7,16.2-15.1,22.4-24.5c-14.7,3.3-35.8,11.1-54.3,8.5
				c-3.8-0.5-7.2-3.6-11.7-4.3c-11.8-1.8-28.6,4.8-35.2-5.3c6.5-0.6,9.5-4.7,11.7-9.6c9.1-0.5,17.3-1.8,20.2-8.5
				c-17.1,3.6-27.5-11.8-37.3-5.3c-11.1-17-49.6-6.5-59.7-24.5c4.7-3.9,14.8-2.2,21.3-4.3c-2.1-5.3-7.1-1.9-11.7-4.3
				c-6.7-3.4-8.4-11.8-22.4-8.5c-3.7-1.3-2.7-7.2-7.5-7.5c-18.8,2.5-25-7.7-35.2-13.9c5.7,0,11.4,0,17.1,0
				c-13.5-22.7-45.4-32.7-57.5-53.3c5.1,1.3,12.4,6.1,17.1,4.3c-12.3-21.4-39.5-33.7-51.2-52.2c4.8,3,11.8,3.8,17.1,6.4
				c-5.9-12.5-15.4-21.6-26.6-28.8c-4.4-10.5-10.9-18.9-16-28.8c7.3,5.9,12.6,13.7,23.4,16c-4.5-10.8-11.2-19.4-21.3-24.5
				c-7.4-13.2-14.3-26.9-21.3-40.5c6.5,4.2,11.3,10,18.1,13.9c0.8-5.5-1.5-7.7-1.1-12.8c-17.3-9-21.8-30.8-23.4-55.4
				c14.9,15,29.5,35.8,55.4,36.2c-20.6-11-40.1-23.1-53.3-41.6c5,0,9.9,0,14.9,0c-2.9-9.2-8.6-15.5-21.3-14.9
				c-4.1-9.7-9-18.7-14.9-26.6C113,652.6,113,648.7,113,644.8z M565.9,120.5c12.5-0.7,21.6,1.8,34.1,1.1
				C595.8,114,567.7,104.5,565.9,120.5z M316.5,206.8c0,5,0,9.9,0,14.9c10.2-7.5,25.7-9.8,30.9-22.4
				C336,200.7,327.6,205,316.5,206.8z M153.5,408.2c-6.3,9.9-1.2,24.6,6.4,29.8c-4.8-27.6,11.2-34.3,20.2-48
				C164,388.9,166.7,406.5,153.5,408.2z"/>
			<path fill-rule="evenodd" clip-rule="evenodd" d="M1001.7,406.1c-7.3-16.8-34.9-22.6-42.6-42.6c5.3,1.8,11.6,2.6,19.2,2.1
				c-9-22.3-37.7-24.9-54.3-39.4c0-3.2,2.8-3.6,3.2-6.4c6.5-0.1,12.1,0.7,17,2.1c-13-7.6-22.1-19.1-41.6-20.2c0-2.5,0-5,0-7.5
				c8.2,0,13.1-3.2,21.3-3.2c-7.5-13.8-27.8-14.9-45.8-18.1c0-2.5,0-5,0-7.5c5.1-0.6,10.7-0.7,14.9-2.1c-6.9-4.8-14.6-8.9-22.4-12.8
				c2.2-4.9,1.1-13.1,3.2-18.1c-5.3,0-10.7,0-16,0c1.2-4.9,4.3-7.8,6.4-11.7c-8.9,0-17.8,0-26.6,0c0.6-4.1-1.9-5.2-1.1-9.6
				c-5.7,0-8,3.4-12.8,4.3c0-2.1,0-4.3,0-6.4c-7.8,1.1-14.9,2.8-21.3,5.3c-2.4-0.8-0.4-6-1.1-8.5c-6,3.9-13.2,6.7-18.1,11.7
				c-2.4-1.8-0.4-8.1-1.1-11.7c-4.9,5-7.5,12.4-11.7,18.1c-3.7-1.9-6.2-5.2-10.7-6.4c0.4,6,1.6,11.1,1.1,18.1
				c1.3,5.3-4.6-5.6-8.5-5.3c2.2,5.6,3.7,11.9,5.3,18.1c-3.3-1.4-5.6-3.6-8.5-5.3c-0.3,3.9,7,9.4,9.6,13.9c2.6,3.1-3.6,4.3-4.3,7.5
				c3.5,4.7,11.9,4.5,17.1,7.5c-2,2.3-5.7,2.8-7.5,5.3c10.7,1.8,22.5,0.4,35.2,0c0,1.8,0,3.6,0,5.3c6.2-3.4,8.3-10.9,10.7-18.1
				c3.4,4,3.9,11,5.3,17.1c8.9-17.8,17.5-52.7-4.3-62.9c12.1-1.1,26.3,5,37.3,8.5c0,4.6,0,9.2,0,13.9c2.2,1.4,6.6-4,12.8-2.1
				c3.3,19.3-6.2,25.8-13.9,34.1c3.8,2.3,7.1-0.5,13.9,0c-7.7,12.9-22.8,18.4-36.2,25.6c2.1,5.7,5.1,10.6,8.5,14.9
				c-15.2,6.9-29.5-9.3-39.4-1.1c-4-2.4-7.4-5.4-11.7-7.5c-1.7,1.4,0,8.4,1.1,10.7c-24.1,3.1-35.4-15.7-44.8-30.9
				c-2.4,4-3.7,9-6.4,12.8c-8.4-14.9-13.5-36.1-9.6-57.5c-4.4,0.2-7,2.3-9.6,4.3c0.8-17.7,18.5-27.6,24.5-43.7
				c-3.8-4-11.7-4-13.9-9.6c15.3-8.9,41.8-6.5,61.8-10.7c-8.5-5.4-19.6-8.1-34.1-7.5c1.3-3,2.4-6.1,3.2-9.6
				c-3.8,1.2-12.7,6.5-23.4,4.3c1.9-3.4,0.6-10,2.1-13.9c-3.4-2.6-5.4,5.2-9.6,5.3c-4.4-0.9-7.8-2.9-12.8-3.2
				c-2.2-8.1-5.3-15.3-7.5-23.4c16.7,1.5,29.8-3.5,42.6-2.1c21.6,2.3,44.4,25.3,70.3,26.6c-0.3,5.4-1.8,9.5-3.2,13.9
				c-5.7,0.6-10.6,2.2-17.1,2.1c10.7,6.7,24.9,9.9,37.3,14.9c2.5-5,0.4-14.6,1.1-21.3c4.7-1.1,7.8,6,11.7,9.6
				c12,11,27.1,24.3,39.4,35.2c0.8-9.3-1.7-15.3-1.1-24.5c16.6,21.7,32.5,44.2,49,66.1c2.8-7.5,4.3-16.3,5.3-25.6
				c11.3,22.1,20.2,46.6,29.8,70.3c4-5.5,3.1-16.1,5.3-23.4c9.3,21.9,18.6,43.9,26.6,67.1c5.7-3.9,5.7-13.5,9.6-19.2
				c4.8,22.5,8.5,46.2,11.7,70.3c6.3-5.8,9.7-14.4,13.9-22.4c3,19.1,1.7,42.4,6.4,59.7c4.7-9.1,6.4-21.3,9.6-32
				c12.9,14.8,2.6,52.8,7.5,75.7c9.9-1.4,11.1-11.6,16-18.1c5.8,70.9,7.6,145.9,11.7,218.5c-11.2-36.1-9.7-72.5-21.3-105.5
				c-11.1-31.3-31.8-59.2-41.6-89.5c4.6,1.5,9.2,2.9,13.9,4.3c-7.1-18.8-25.9-26-34.1-43.7c1.4-3.5,8.4,4.8,11.7,6.4
				c3-0.9,2.3-5.5,4.3-7.5c-6.6-4.4-13.4-8.6-21.3-11.7c-4.2-9.3-9.2-17.8-14.9-25.6C987.4,400.6,997.1,403.6,1001.7,406.1z"/>
			<path fill-rule="evenodd" clip-rule="evenodd" d="M119.4,523.3c8.7,2.8,14.4,14.3,28.8,10.7c8.1-2.1,8.5-12.6,18.1-12.8
				c-7.3,17.9-17.9,32.6-44.8,30.9c4.3-6,12.9-7.7,21.3-9.6c-2.8-3.2-8.7-3.4-14.9-3.2C125,534.1,123,527.9,119.4,523.3z"/>
		</g>
	</g>
</g>
</svg>
