<?xml version="1.0" encoding="utf-8"?>
<!-- Generator: Adobe Illustrator 18.1.1, SVG Export Plug-In . SVG Version: 6.00 Build 0)  -->
<!DOCTYPE svg PUBLIC "-//W3C//DTD SVG 1.1//EN" "http://www.w3.org/Graphics/SVG/1.1/DTD/svg11.dtd">
<svg version="1.1" id="Layer_1" xmlns="http://www.w3.org/2000/svg" xmlns:xlink="http://www.w3.org/1999/xlink" x="0px" y="0px"
	 viewBox="0 0 1200 1200" enable-background="new 0 0 1200 1200" xml:space="preserve">
<g>
	<path d="M217,46v800.3l381.6,307.4L983,846.3V46H217z M511.9,164.4c2.4,4,4.9,7.9,8,11.1c-0.6-8.3,1.6-13.7,6.2-16.7
		c-3.4,9-4,21.8,8,23.5c14.7,2.1,29.9-15.1,48.3-11.1c1.1,2.2,0.4,5-0.6,6.8c-3.2-0.3-4.2-2.9-6.8-3.7c-7.2,2.2-15.5,3.2-23.5,6.2
		c-4.5,1.7-8.5,5-13.6,5.6c-12.3,1.3-20.9-2.3-26.6-12.4C512.3,171.4,511.8,167.6,511.9,164.4z M326.8,402.8c-1.7-3-2.9-6.6-5-9.3
		c5.1,1.6,8.3,8.3,16.7,6.2c4.7-1.2,4.9-7.3,10.5-7.4c-4.3,10.4-10.4,18.9-26,18c2.5-3.5,7.5-4.5,12.4-5.6
		C333.8,402.8,330.4,402.7,326.8,402.8z M862.4,535.3c-4.5,12.1-6.7,24.4-11.8,34.7c-2.5,5.1-7.3,11.2-11.1,16.7
		c-7.7,11-15,20.8-22.9,32.2c-4,5.8-6.7,12.7-10.5,16.7c-4.2,4.4-11.5,8.6-17.3,13c-16.8,12.7-34.1,25.4-51.4,38.4
		c-11.6,8.8-27.2,12.7-41.5,18.6c-15,6.1-29.1,13.5-42.1,18c-6.8,2.4-20.3,2.2-29.1,3.1c-15.3,1.5-30.7,2.3-45.2,4.3
		c-2.7,0-5.4,0-8.1,0c-4.3-2-10.4-1.9-14.9-3.7c33.5-2.5,70.3-12.4,102.2-19.8c10.9-2.5,22.4-5.8,24.8-15.5c1.4-5.6-1.1-12.5,0-17.3
		c2.8-1.8,5.7-3.4,8.7-5c1.5-0.2-0.3,2.8,1.9,1.9c20.4-6.3,42.9-10.3,54.5-25.4c2.6-11-2.9-18.3-8.7-22.9c4.4-4.1,11.2-8.7,18-14.2
		c5.7-4.6,13.9-9.4,17.3-14.2c7.2-10.2,7.5-32.2-2.5-39c-3.6,1.6-10.2,2.7-14.9,1.2c3.3-5.4,13.2-11.5,14.2-23.5
		c1.4-17.1-1.5-38.3-15.5-39.6c-5.2-0.5-9.4,3.7-16.1,3.1c1.4,5.5,5.8,12.9,1.9,19.8c8.6,7.1,17.7,22,11.1,36.5
		c-3.1-5-6.8-12.6-11.1-14.2c6.8,12.9,14.7,39.9,2.5,52c-6.3-3.8-2.8-17.4-10.5-19.8c5.2,9.9,5.2,28.3-3.1,34.7
		c-0.7,6.5-0.4,14.1-2.5,19.2c-3.5-6.9,0.3-20.8-8.7-20.4c9.9,20.1-11.7,29.9-14.9,47.7c-2.7-5.3-3.1-15-4.3-19.8
		c-2.4,5.2-2.3,13-3.1,19.8c-6.6,5.6-10.9,16.8-20.4,17.3c0.1-4.7,3.1-9.7,1.9-13.6c-1.5,1.6-3.9,2.3-5.6,3.7
		c1.5,8-3.3,12.2-7.4,17.3c-5.1,6.5-7.6,10.2-18.6,9.9c0-4.3,2.1-9.8,0.6-13.6c-1.5,4.7-3.9,8.5-3.7,14.9c-5.3,3.3-8.4,6.7-16.7,4.3
		c-7.6,5.2-15.9,13-22.9,16.7c0.7-7.3,3.8-12.3,6.2-18c-6.8-0.2-6.2,7-8.7,11.1c-18.2,1.8-31.6,11.8-45.2,16.1
		c-2.1-14.3,10.4-13.9,14.9-21.7c-11-2.8-12.1,10.7-19.8,13c-2,0.6-4.7-0.1-6.8,0c-8.6,0.5-18.3,2.2-27.2,1.9
		c0.6-8.5,9.4-8.8,13-14.2c-8.6,1.9-20.8,6.4-31.6,5c-2.2-0.3-4.2-2.1-6.8-2.5c-6.8-1-16.6,2.8-20.4-3.1c3.8-0.3,5.5-2.7,6.8-5.6
		c5.3-0.3,10.1-1.1,11.8-5c-9.9,2.1-16-6.9-21.7-3.1c-6.4-9.9-28.8-3.8-34.7-14.2c2.7-2.2,8.6-1.3,12.4-2.5
		c-1.2-3.1-4.1-1.1-6.8-2.5c-3.9-2-4.9-6.9-13-5c-2.2-0.7-1.6-4.1-4.3-4.2c-10.9,1.4-14.5-4.9-20.4-7.9c3.3,0,6.6,0,9.9,0
		c-7.9-13-26.4-19.1-33.4-31.1c3,0.8,7.2,3.5,9.9,2.4c-7.2-12.4-23-19.6-29.7-30.4c2.8,1.7,6.9,2.2,9.9,3.7
		c-3.5-7.3-8.9-12.5-15.5-16.7c-2.6-6.1-6.3-11-9.3-16.7c4.2,3.4,7.3,8,13.6,9.3c-2.6-6.3-6.5-11.3-12.4-14.2
		c-4.3-7.7-8.3-15.6-12.4-23.5c3.8,2.4,6.6,5.8,10.5,8c0.5-3.2-0.9-4.5-0.6-7.4c-10.1-5.2-12.7-17.9-13.6-32.2
		c8.7,8.7,17.1,20.7,32.2,21c-12-6.4-23.3-13.2-31-24.2c2.9,0,5.8,0,8.7,0c-1.7-5-5.1-9-12.4-8.6c-2.4-5.6-4.7-10.8-8.7-15.4
		c0-2.3,0-4.5,0-6.8c4,2.1,6.9,5.5,11.2,7.4c-4.4-16.5-8.8-39.9-4.9-58.8c10.6,1.8,14.4-3.3,20.4-6.2c-1.7,5.9-2.4,12.4-2.5,20.4
		c-1.7,0-3.3,0-5,0c2.4,4,6.4,9.3,3.1,14.8c-2.2-0.1-2.4-2.2-4.3-2.5c1.4,4.6,5.6,6.4,5,13c0,2.8-1.8-0.9-3.1-0.6
		c1.2,3.5,5.6,3.9,4.3,9.9c-1.8-0.1-2.6-1.1-4.3-1.2c1.4,3,7.3,6.7,6.2,14.2c-1.4,0.2-2.4-0.1-3.1-0.7c1.6,3.3,6.5,3,6.8,8
		c-1.2,0-2.5,0-3.7,0c3.1,3,7.6,4.5,9.9,8.1c0.2,1.4-1.8,0.7-1.9,1.9c4.9,0.5,9.1,1.7,10.5,5.6c-0.6,1.9-3.6,1.4-5,2.5
		c3.3,1.2,8.9,0.2,10.5,3.1c0.2,2.3-3.9,0.3-4.3,1.9c4.1,2.8,13.8-0.2,14.8,5.6c1.7-2.8,4.2-4.7,9.2-4.3c0,2.5,0,5,0,7.4
		c3-2,3.4-6.7,6.3-8.7c1.4,0,2.7,0,4.7,0c0,1,0,2.5,0,3.7c1-1.7,1.3-4.7,1.7-7.4c1.4-0.9,4.1,0.8,6.1,1.2c1.1-1.3,0.4-4.5,0.6-6.8
		c1.5,0,1.7,1.1,3.7,0.6c0-3.1,0-6.2,0-9.3c2-0.5,2.4,0.9,4.3,0.6c0.1-2.2-2.4-7.1-3.7-9.9c0.8-1.2,3.9,0.6,5.6,0.6
		c-1.7-3.9-5.2-6-6.8-9.9c2.4,0.5,4.5,1.3,6.8,1.9c-0.4-5.6-7.4-4.6-12.4-5.6c-0.5-1.8-1-3.6-2.5-4.3c1.3-1.4,5.1-0.2,7.4-0.6
		c0-5.9-11.5-0.5-10.5-7.4c-2.9,0-6.1,2.3-8,1.2c-1.8-3.1,1.1-4.5,3.7-5c-5.4-3.3-6.1,3.4-10.5,3.1c-2.4,0.5-0.8-2.9-1.2-4.3
		c-2.4,1.6-4.2,3.6-5.6,6.2c-2.3-1.8-6.1-1.9-6-6.2c-2.5,4.3-1.6,12.1-6.6,13.6c0-1.7,0-3.3,0-5c-2,3.5-2.8,7.7-7.7,8
		c0.3,4.4-0.8,10.2,0.5,13.6c-1.1,2.9-2.9-3.5-5-3.7c0.2,5,1.3,9,1.8,13.6c-6.6-8-9.8-19.5-11.2-32.8c8.9-13.6,13.2-31.7,35.3-32.2
		c-2.3,3.9-5.7,6.7-8.1,10.5c8.1-4.9,25.9-9.4,35.9-3.1c-5.2,1.4-12.8,0.4-16.1,3.7c8,2.4,15.5-1.1,22.3,0.6
		c7.5,1.9,11.1,10.3,14.2,16.1c-3.6-1.4-7.3-2.6-11.1-3.7c15.1,5.9,21.4,23.5,20.4,45.2c-0.4,9.7,0.4,20.7-4.3,26.6
		c-3.2-5.4-2.4-14.9-8-18c1,15.9-7.4,27.6-18,34.1c-0.6-4.2,2.7-9.7,3.1-14.9c-3.9,1.2-6.9,3.4-10.5,5c-0.2,2.5-1.1,4.3-1.2,6.8
		c-7.6,1.5-14.4,3.8-21.7,5.6c2.3-3.3,5.7-5.4,8.1-8.7c-11.8,1.9-26.2-1-32.2-8.7c-1.9,0.5-2.6,2.3-5,2.5c5.7,3.4,15.6,2.6,17.3,9.9
		c-2.4-0.5-3.9-1.8-6.2-2.5c2.6,4.2,7,6.6,8.7,11.8c-1.4-0.8-3.5-1-5-1.9c2.3,4.9,10.6,9.2,12.4,16.7c-3.1-0.8-5.3-2.6-8.1-3.7
		c2.9,5.1,11.6,9.9,14.2,17.3c-2.6-1.5-5.8-2.5-8.7-3.7c2.5,3.7,9.2,8.6,13.6,12.4c-0.2,0.8-1.5,0.5-2.5,0.6
		c6.1,5.5,13.2,10,17.3,17.3c-1.7,0.7-5.2-2.3-8-2.6c4.9,4,11,6.9,13.6,12.9c-1,0-2.1,0-3.1,0c4.1,4,9.2,6.2,12.4,10.6
		c-0.4,1.3-3.9,0.6-4.4,0c-0.6,1.2,2.7,4.3,3.7,5.6c0-1,0-2.1,0-3.1c5,5.7,7.4,12.9,15.5,14.9c2.9,4.9,10.6,9,17.4,6.2
		c1.2,1.6,2.3,3.5,3.1,5.6c15,8.2,32.4,17.1,51.4,24.1c11.8,4.4,23.5,8.3,40.9,6.8c2.6-0.2,5.4-2,8.1-2.5
		c10.4-1.8,22.1-0.2,33.4-2.5c11.1-2.2,23.9-7.9,35.3-11.8c11.5-3.9,24.1-9.4,31.6-14.9c3.7-2.7,6.7-7.7,10.5-11.8
		c7.6-8.3,14.3-15.3,19.2-26.6c0.9-15.8,8.3-25.5,5-44c-1.7,1.6-1.7,5.1-2,8c-2.8-10.6,4.8-31-8.2-32.2c0-1.4,0-2.9,0-4.3
		c-14,1.9-18.9,15.3-17.1,30.3c0.9,7.6,5.1,16.5-0.5,22.9c3,13.4-2.6,23.3-14.2,24.1c-1-2,4.2-5.4,4.4-10.5c0.1-3.8-1.5-6.7-3.7-9.3
		c-27.6,11.3-76.5,14.2-104.6,1.2c-0.2,4.1-3.2,8.7-3.7,13.6c-0.4,3.8,1.5,7.9,0.6,11.8c-0.5,2-3.2,3.9-4.3,6.2
		c-2.1,4.5-1.8,8.3-4.3,10.5c-3.8,3.3-10.3,3.7-17.3,1.9c2.8-3.1,10.2-5.3,8.7-13c-0.6-2.9-3.3-6.8-3.7-11.8
		c-0.6-6.7,0.1-12.2-3.1-16.1c-5.2-6.3-12.7-6.8-16.7-11.8c-5.1,0.8-8.2-1.1-13,0c-6.8,1.6-12.1,10.4-15.5,0c-5.7,0.1-6.7,4.9-8,9.3
		c-12.1-15.5,6.6-23.9,13.6-31.6c-3.4,1.3-4.3-1.9-6.2-3.7c-2.4,1.7-5.1,3.2-7.4,5c-4.1-14.8,10.5-16.3,19.8-19.8
		c2.6,0.3,3.3,2.4,6.8,1.9c0.2-4.1-7.1-6-13.6-5.5c1.8-2.7,4.1-5,5.6-8c4.5,0,9.1,0,13.6,0c3.3,5,7.1,9.4,12.4,12.3
		c5.8,10.6,14.4,24.2,26.6,29.7c11.9,5.4,31.8,6,47.1,4.9c14.9-1,28.2-6.3,37.8-11.2c3.4-10.8-6-18-9.9-27.2
		c-4.8-11.3-7.3-24.9-6.8-42.7c-9.8,1.4-12.3,11.7-19.2,16.7c-1.6,10.4-7.2,16.7-14.2,21.7c-1.4,2.7-3.5,7-6.8,9.3
		c-3.7,2.6-10.9,5.5-14.9,1.9c6-3.3,12.9-5.7,10.5-17.3c-37-10.2-61.6-32.9-79.9-61.9c-1.4,0.6-3.7,0.4-5,1.2
		c0.7,7.5,0.6,14.7-2.5,19.8c-1.3,1.3-2-0.1-3.1-0.6c-2.1,9.3-17.1,11.1-23.5,4.3c4-2.4,10.6-2.2,13-6.2c-5.9-5.3-8.1-16.8-1.9-23.5
		c3.7-33.2-25.9-33.1-37.8-50.8c-8.6-1.6-9.2,4.8-16.1,5c4.6-7.3,7.6-21.6,20.4-16.7c1.8-2,2.1-5.3,4.3-6.8c2.1-0.2,3.6-1,6.2-0.6
		c-1.8-4.4-6-7.7-11.8-5c-1.8-10.7,21.9-12.6,24.1-2.5c2-0.1,2.7-1.4,5-1.2c2.4,1.3,3.3,4.1,4.3,6.8c5.1-3.1,2-14.8-6.2-12.4
		c0.3-5.5,9.3-2.2,14.2-3.1c5,1.9,8.4,8.4,6.8,14.9c0.5,1.7,3.2,1.3,4.3,2.5c2.8,13.3-0.6,24.7,2.5,36.5
		c1.9,7.2,10.6,17.6,15.5,24.1c11,14.7,23.6,28.8,41.5,35.9c0.9-9.7-9-14.1-14.9-19.2c-0.1-4.4-2.2-6.9-4.3-9.3
		c-0.2-7.6-0.9-14.8-5.6-18c-1.2-9.7-3.3-18.6-8.7-24.1c-0.1-1.3,2.2-0.3,3.1-0.6c1.1-14.9-5.4-22.3-18-23.5
		c2.5-5.3,9.2-8.5,7.4-16.1c-1-4.4-6.4-8.7-11.1-9.9c2.2-7,0.4-16-3.1-21c-2.9,0-5.8,0-8.7,0c-1.5-2,3.7-4.6,3.7-8.1
		c0.1-8.3-13.5-10-21.7-12.4c0.7-5.4-1.2-8.3-3.7-10.5c-2.8,0.9-5.3,2.1-7.4,3.7c-3.3-3.1-7.2-5.6-9.9-9.3
		c-7.4,0.9-14.3,2.2-19.2,5.6c-0.8,0.2-0.5,1.5-0.6,2.5c-3.6-0.2-4.8-2.6-8-3.1c-4.8,2.6-8.1,6.8-12.4,9.9
		c-6.8-0.4-12.9-0.1-15.5,3.7c10.9,1.4,22.3-2.2,30.5-5.6c-6.7,9.6-20,12.7-29,19.8c0,2.5,0,5,0,7.4c4-0.8,8-11.2,14.1-10.5
		c-3.8,7.7-9,14.2-13.7,21.1c3.2-2.8,8.4-8.9,15.4-9.9c-4.4,7-13.3,14.8-17.4,24.1c2,3.6,3,8.1,9.3,7.4c-0.5,2.8-2.9,4.2-3.7,6.2
		c3.5,0,7,0,10.5,0c-3,4-11.9,7.1-17.3,3.1c-5.6,0.3-9.5,2-13-1.2c4.3-0.7,5.5-4.4,9.3-5.6c-1.2-1.7-4.4-1.4-6.2-2.5
		c8.3-1.8,2.3-8.4-3.7-8c1.7-2,5.4-2,6.8-4.3c-1.4-1.1-3.5-1.5-5-2.5c1.8-1.1,5.7-0.1,4.3-4.3c-0.1-1.4-2.6-0.3-3.7-0.6
		c-3.1-0.7,2.5-2.1,1.9-4.3c-10.7-4.7-4.4,17.7-8.7,23.5c-4-0.9-1.4-5.8-1.2-8.7c0.3-6.9,0.7-15.5,0.6-20.4
		c-2.2-0.6-0.9,2.4-1.2,3.7c-1.5,0.1-3,0.1-3.7-0.6c0.4,2.5,1.2,4.6,2.5,6.2c-1.3,1.8-2.5-1.6-4.3-1.2c-3.1,2.5-0.6,4.6,0.6,7.4
		c-1.5-0.2-1.2-2.2-3.1-1.9c-1.2,0.1-0.4,2-1.9,1.9c0.5,3.7,3.6,4.7,5.6,6.8c-1.3,1.3-4.3-1-6.8-0.6c-1.4,3.7,1.6,5.5,4.3,6.8
		c-1.1,0.8-4.1-0.4-6.2,0.6c1.9,3.7,6,5.1,9.3,7.4c-6.1,5.8-8.1-5.7-16.1-1.9c-2.3-4.1-2.8-10-2.5-16.7c6.7-5.6,4.8-19.9,10.5-26.6
		c-7-18.3,9.8-31.1,17.3-42.7c2.8-12.7,6.4-24.6,16.1-30.3c3.3-5.8,4.6-13.6,5-22.3c8,5.9,7.7,23-0.6,28.5c0.4,2.1,1.9,3,2.5,5
		c-2.1,5.3-10.9,7.4-7.4,16.3c10.6-4.9,19.6-16.9,29.7-23.9c3.1,0,6.2,0,9.3,0c-3.7,3-8.5,4.9-12.5,7.6c0,2.7,0,5.4,0,8
		c3-0.8,5.1-2.5,8.4-3.1c3.4-9.6,10.6-15.3,24-14.9c0.8,1.3,1.7,2.3,3,3.1c-5.4,3-11.6,5.3-17.4,8c5.9-0.2,9.4,0.9,14.2-0.6
		c4.9-1.5,7.2-7.1,11.1-8c5.6-1.3,11.8,1.7,19.2,1.2c-6.2,2.3-12.4,4.5-19.2,6.2c3.2,2.4,8.2,2.9,11.8,5c5.2-3.3,19.9-6.8,24.2,0
		c-3.7,2.1-10.6,0.9-14.9,2.5c4.5,7.4,16.3,5.2,26,3.7c3.1,1.3,2.9,5.7,5.6,7.4c-2.9,1.4-8.5,0.2-12.4,0.6c-0.9,2.8,3,5.6,3.7,8.7
		c7.5,0.3,13.3,2.3,20.4,3.1c1.1,2.4,1.6,5.4,2.5,8.1c-4.8,0-7.6-1.9-12.4-1.9c2.3,6.8,8.2,10,15.5,11.8c-0.9-5.2,4-15.3,1.2-24.1
		c2.7,0.8,3.9,3.1,6.2,4.3c1-1.3,0.4-4.1,1.2-5.6c-0.2-1.5-1.7,0.7-1.9,1.2c-1-2.5-4.8-4.5-5-8c-0.2-4.2,5.1-7.3,6.8-12.4
		c0.7-2.1,0-5,0.6-7.4c1.3-4.8,4.1-8.4,4.3-11.8c0.5-6.9-1.6-11.9-9.3-15.5c2.5-2.1,6.1-1,7.4,1.2c6.9-12.9-4.9-20.2-8-30.3
		c-1.9-0.8-4.7-0.6-7.4-0.6c-3.6-5.4-8.1-10.1-11.8-15.5c-5,1.6-10.5,2.7-15.5,4.3c4.8,4.1,10.8,6.9,16.1,10.5
		c-11,1.4-22.7,2.1-32.8,4.3c3.5,3.5,10.4,3.7,17.3,3.7c-6.8,5.4-15.9,8.5-24.8,11.8c3.9,0.9,11.9-0.9,16.7,0.6
		c-7.8,5.8-18.3,8.9-27.2,13.6c-1,6-0.7,10.5,3.7,12.4c-1.3,1.3-3.6,1.8-5.6,2.5c-1.5-2-2.6-4.4-4.3-6.2c-2,0.6,1.4,6.7-2.5,5.6
		c-3.1-0.5,0.2-3.9,0-5.6c-5.9-0.9-12.7-0.9-14.9-5.6c4.1-1.9,9.1,0.8,14.2,0c1.3-1,1.6-3,2.5-4.3c0.1-2.4-2.5-2-3.7-3.1
		c1.4-1.4,5.8-0.5,7.4,0c4.7-5.4,8.8-11.4,10.5-19.8c-8.3,4.8-20.1,16.2-30.3,24.1c-6.4,5-12.1,14-25.4,11.1
		c-5.2-1.1-7.4-5.5-10.5-9.9c2.8-1.9,6.4,0.6,9.9,0c-0.3-3.6-5.5-7.8-6.8-12.4c2-1.9,1.1-6.7,3.7-8c-0.3,14.9,8.3,26.5,23.5,22.3
		c5.8-1.6,10.9-11.6,15.5-16.1c8-7.9,15.8-14.3,19.2-21.7c-4.5-0.6-7.1,0.7-9.9,1.9c-0.5,2.8,0.8,3.7,0.6,6.2c-1-1.1-2.6-1.5-5-1.2
		c-0.6,4.9-3.9,7.3-5,11.8c-1.6-2.1-1.7-5.8-5-6.2c-2.1,1.6,0.3,8,0,11.8c-2.6-2.1-4.2-5.3-4.3-9.9c-2.1,0.2-2.7,1.9-3.7,3.1
		c0.9,2.9,1.8,6.1,0.6,9.3c-2.2-1.3-2.5-4.6-5-5.6c-0.6,0.8-1.7,1.2-2.5,1.9c0.9,5.1,3.9,8.1,5,13c-5.1-2.1-8.5-6-11.1-10.5
		c-4.3,0.6-6.8-0.6-8-3.1c3.8-7.1,6.8-15.1,18-14.9c6.6-4.6,11.2-11.1,19.2-14.2c-0.5-2.8-0.2-6.4-1.2-8.7
		c14.5-9.2,34-13.5,42.1-29.1c13.7-4.9,27.2-10,32.8-22.9c-0.4,11.7-11,18.7-17.3,26.6c4.3,4,10.2-5.4,18-0.6
		c-2.2,2.5-6,3.5-8.7,5.6c5.1,2.7,12.9,3,18.6,0.6c3,2.4,5.9,4.9,8.7,7.4c-1.1,1.4-4.7,0.2-6.8,0.6c0.8,2.7,3.1,3.9,5,5.6
		c12,0.4,19.2,5.6,22.3,14.9c-4.4-2.1-6.8-6.8-13-5.4c4.2,6.6,10.8,10.9,15.5,16.9c1.4,0,2.9,0,4.3,0c5.5,7,12.9,20.5,7.4,33.2
		c-2.7-6.6-4.3-14.3-9.3-18.7c-1.5,15.2,4.7,22.5,3.7,37.1c-5.1-0.1-2.9-7.4-8.1-7.5c-1.4,3.7-0.2,10.1-0.6,14.8
		c10.4-0.6,16-11.2,17.3-22.9c8.6,6.9,20.9-2.1,17.3-13c4.7,1.3,9.8,2.2,14.2,3.7c3.8-1,3.2-6.3,3.1-11.1
		c11.3,0.8,20.3-0.8,20.4-11.1c2.4-1.5,4.8-3.1,7.4-4.3c-1.8-9.8,7.7-10.5,7.4-16.7c-0.2-3.1-3.9-3.5-5-6.8c-1.4-4.4,1-7.3,0-13
		c-6.9-5.5-13.8-11-21.1-16.1c2.1,8.8,8.7,13.2,14.2,18.6c-13.3,1.3-16.7-12.6-32.8-10.5c4.3,5.2,10.3,8.7,15.5,13
		c-5.6-2.3-15.9-5.2-26.6-4.3c4.2,6.8,14.6,7.3,21.7,11.1c-10.5-0.1-32.1-12.4-41.5-1.9c-0.1,3,4.3,1.4,4.3,4.3
		c-4.3,3.8-9.2-2.3-12.4-3.7c-0.4,2.3,0.8,6.2-0.6,7.4c-6.6-1.8,0.3-13.3-5.6-15.5c1.6-0.7,3.5,3.5,5.6,4.3c1.7-0.8,3.3-1.7,5-2.5
		c-0.8-0.9-2.1-1.2-3.7-1.2c0.2-2.3-0.5-5.5,0.6-6.8c1.6,2.5,2.8,5.4,5.6,6.8c1-2.3,1-8.9,0-11.1c2.2-0.1,3.1,6.4,5,8.7
		c1.3-1,4-0.7,3.3-3.7c0.6-2.2-2.9-0.6-2.9-1.9c0-1.9,0-3.7,0-5.6c3,2,3.7,6.5,7.9,7.4c2.9-1.6-0.5-5.7-0.7-8
		c0.8-1.5,6.1,2.8,5.5,6.8c1.2-0.3,1.5-1.3,3.1-1.2c-0.3-3-1.4-5.2-2.5-7.4c0.6-2.2,4.2,2.6,5.6,3.7c9.4-3.3,7.9-15.8-1.9-17.3
		c-5.6-0.9-11.5,1.3-17.3,1.9c-0.9,0.8-1.2,2.1-1.2,3.7c-1.7-0.6-0.4-4.2-3.7-3.1c-2.2,1.3-2.6,4.4-3.7,6.8
		c-2.1-1.6-0.5-6.9-4.3-6.8c-1.2,2.1,0.2,5.8-3.1,8.1c-1.4-1.3-0.2-5.1-0.6-7.4c-4.3-0.8-9.1-1.3-12.4-3.1c-0.4-1.1,0.7-3.6-0.6-3.7
		c6.5-7.1,18.5-1.8,29.7-1.9c3.5-3.3,10.2-5.7,16.1-3.1c9.2-19.7,29.3,3.1,47.7-1.2c4.8-1.1,8.2-8.2,14.2-8c4.5,0.1,8.5,4.8,13,5.6
		c12.1,2.2,20.4-3.9,31.6-7.4c-1.5,3.2-4.5,5-6.2,8c-10.9,2.8-21,9.5-35.9,6.2c-1.9,1.2-4.3,1.9-6.2,3.1c-4.4-1.1-10.7-0.4-14.9-1.9
		c-0.1,1.8,3.5,5.2,8,4.3c-1.2,8,4.8,8.9,8,12.4c-1.6-4.8-6.8-6-6.2-13c11.3,4.6,23.9,7.8,29.1,18.6c-3.8,0.4-8.5-3.5-12.4-5
		c2.8,5.2,5.1,11,11.8,12.4c3.6,6.4,6.2,13.6,8,21.7c-3.4-4.6-5.8-10.3-11.1-13c2,11.8,9.4,28.7,3.1,40.9c-2.7-4.1,0-13.6-5.6-14.9
		c-5.5,5.7-1.8,14.2-2.5,21.1c-0.7,7.2-6.3,11.4-8.7,16.7c-1-5.4,1.7-12.3,1.9-18.6c-2.9,2.1-5.1,4.8-7.4,7.4
		c1.2,13.1-4.1,19.8-12.4,23.5c1.5-5.9,4-10.8,5.6-16.7c-3,0.3-7.4,4.6-11.1,6.2c1.2,14.4-7.2,19.2-14.2,25.4
		c0.6-5.8,5.6-12.6,7.4-19.2c-3.3,0.9-7.8,5.8-11.8,8c1.3,14.9-8.4,18.8-16.1,24.8c1-5.8,5.5-13.5,7.4-20.4c-5.8,1.2-5.1,8.9-13,8
		c0.3,9.8-3.1,15.9-7.4,21.1c-1.2-3,1.4-10.1-1.2-13c-3.6,0.5-4.7,3.6-6.8,5.6c2.2,10.1,0.3,17.4-0.6,29.1
		c-3.2-3.8-5.2-8.8-4.3-16.7c-12.8,5.5-3,22.3,1.2,32.8c-5.9-0.9-8.8-4.8-12.4-8c-3.8,15.6,16.2,12.7,18,24.8
		c-5.5-0.1-11.7-4.8-16.7-7.4c0.7,5.3,6,11.3,9.3,16.1c10,1.6,12.9-6.1,11.8-13.6c4.8,6,12.3,20.2,22.9,12.4c0.2-3.5-0.9-5.8-1.9-8
		c5,10.9,26.5,8.3,30.3-5.6c1.6-21.4-8-31.6-16.7-42.7c-12.2-1.4-20.3-0.8-27.2,5c5.1-6.3,8.6-14.7,14.9-20.4
		c3.6-3.3,10-5.7,15.5-9.3c4.9-3.2,10-8,14.9-9.9c6.6-2.6,29.8-6.5,39-7.4c10.7-1,23,1.2,35.3,1.9c6,0.3,12,0.3,17.3,1.2
		c11.6,2.1,23.6,9.7,34.7,14.2c12.2,5,23.7,9.5,34.7,13.6c11.9,11.5,24.7,24.4,37.8,36.5c4.2,4,9.9,7.4,13,11.8
		c3.3,4.6,5.9,12.3,8.7,18.6c5.6,12.8,10.6,24.3,16.7,37.8c2.8,6.2,7.4,12.3,8.7,18c1.1,4.8,0.9,11,1.2,16.1
		c1.1,16.3,2.3,34.3,3.7,50.8C875.1,507.9,866.9,523,862.4,535.3z M871.7,419.5c-6.4-18.2-18.5-34.4-24.1-52c2.7,0.9,5.3,1.7,8,2.5
		c-4.1-10.9-15-15.1-19.8-25.4c0.8-2,4.9,2.8,6.8,3.7c1.7-0.5,1.3-3.2,2.5-4.3c-3.8-2.6-7.8-5-12.4-6.8c-2.5-5.4-5.3-10.4-8.7-14.9
		c2.2-0.1,7.8,1.7,10.5,3.1c-4.3-9.8-20.3-13.1-24.8-24.8c3.1,1.1,6.8,1.5,11.1,1.2c-5.2-13-21.9-14.4-31.6-22.9
		c0-1.8,1.6-2.1,1.9-3.7c3.8-0.1,7.1,0.4,9.9,1.2c-7.5-4.4-13.1-11.1-24.1-11.8c0-1.4,0-2.9,0-4.3c5,0,7.8-1.9,12.5-1.9
		c-4.4-8-16.5-8.6-26.5-10.5c0-1.4,0-2.9,0-4.3c3-0.3,6.1-0.4,8.5-1.2c-4-2.8-8.5-4.9-13.1-7.2c1.3-2.9,0.6-8.3,1.8-10.3
		c-3.1,0-6.2,0-9.3,0c0.7-3,2.5-5,3.7-7c-5.2,0-10.3,0-15.5,0c0.3-3-1.2-3.2-0.7-5.7c-3.3,0-4.5,1.8-7.5,2.3c0-1.2,0-2.5,0-3.7
		c-4,0.6-8.6,1.6-12.3,3.1c-1.4-0.5-0.2-3.5-0.6-5c-3.5,2.3-7.7,3.9-10.5,6.8c-1.4-1.1-0.2-4.7-0.6-6.8c-2.9,2.9-4.3,7.2-6.8,10.5
		c-2.2-1.1-3.6-3-6.2-3.7c0.2,3.5,1,6.5,0.6,10.5c0.7,3.1-2.7-3.3-5-3.1c1.3,3.2,2.1,6.9,3.1,10.5c-1.9-0.8-3.3-2.1-5-3.1
		c-0.2,2.2,4,5.4,5.6,8c1.5,1.8-2.1,2.5-2.5,4.3c2,2.7,6.9,2.6,9.9,4.3c-1.1,1.3-3.3,1.6-4.3,3.1c6.2,1.1,13.5,0.2,20.5,0
		c0,1,0,2.1,0,3.1c3-2,4.7-6.3,6.1-10.5c2,2.4,2.3,6.4,3.1,9.9c5.2-10.3,10-30.6-2.7-36.5c7-0.6,15.5,2.9,21.5,5c0,2.7,0,5.4,0,8
		c2,0.8,4-2.3,7.6-1.2c1.9,11.2-3.5,15-8,19.8c2.2,1.3,4.2-0.3,8.1,0c-4.5,7.5-13.2,10.7-21,14.9c1.2,3.3,3,6.1,5,8.7
		c-8.8,4-17.1-5.4-22.9-0.6c-2.3-1.4-4.3-3.1-6.8-4.3c-1,0.8,0,4.9,0.6,6.2c-14,1.8-20.6-9.1-26-18c-1.4,2.3-2.2,5.3-3.7,7.4
		c-4.9-8.6-7.8-21-5.6-33.4c-2.5,0.1-4.1,1.3-5.6,2.5c0.5-10.3,10.8-16.1,14.2-25.4c-2.2-2.3-6.8-2.3-8.1-5.6
		c8.9-5.1,24.3-3.8,35.9-6.2c-4.9-3.1-11.4-4.7-19.8-4.3c0.7-1.7,1.4-3.6,1.9-5.6c-2.2,0.7-7.4,3.8-13.6,2.5c1.1-2,0.4-5.8,1.2-8
		c-2-1.5-3.1,3-5.6,3.1c-2.6-0.5-4.5-1.7-7.4-1.9c-1.3-4.7-3.1-8.9-4.3-13.6c9.7,0.9,17.3-2,24.8-1.2c12.6,1.3,25.8,14.7,40.9,15.5
		c-0.2,3.1-1.1,5.5-1.9,8c-3.3,0.4-6.2,1.3-9.9,1.2c6.2,3.9,14.5,5.8,21.7,8.7c1.4-2.9,0.2-8.5,0.6-12.4c2.7-0.6,4.6,3.5,6.8,5.6
		c7,6.4,15.7,14.1,22.9,20.4c0.5-5.4-1-8.9-0.6-14.2c9.7,12.6,18.9,25.7,28.5,38.4c1.6-4.3,2.5-9.5,3.1-14.9
		c6.6,12.8,11.7,27.1,17.3,40.9c2.3-3.2,1.8-9.4,3.1-13.6c5.4,12.7,10.8,25.5,15.5,39c3.3-2.3,3.3-7.8,5.6-11.1
		c2.8,13.1,4.9,26.8,6.8,40.9c3.6-3.4,5.7-8.4,8.1-13c1.7,11.1,1,24.6,3.7,34.7c2.7-5.3,3.7-12.4,5.6-18.6c7.5,8.6,1.5,30.7,4.3,44
		c5.8-0.8,6.5-6.7,9.3-10.5c3.4,41.2,4.4,84.8,6.8,126.9C877.5,459.9,878.4,438.7,871.7,419.5z"/>
	<path d="M341.6,326.7c-3.6,5.7-0.7,14.3,3.7,17.3c-2.8-16,6.5-19.9,11.8-27.9C347.8,315.5,349.3,325.7,341.6,326.7z"/>
	<path d="M581.3,159.5c7.2-0.4,12.6,1,19.8,0.6C598.7,155.7,582.3,150.2,581.3,159.5z"/>
	<path d="M436,218.3c6-4.4,14.9-5.7,18-13c-6.6,0.8-11,3.3-18,4.3C436,212.5,436,215.4,436,218.3z"/>
</g>
</svg>
