<?xml version="1.0" encoding="utf-8"?>
<!-- Generator: Adobe Illustrator 18.1.1, SVG Export Plug-In . SVG Version: 6.00 Build 0)  -->
<!DOCTYPE svg PUBLIC "-//W3C//DTD SVG 1.1//EN" "http://www.w3.org/Graphics/SVG/1.1/DTD/svg11.dtd">
<svg version="1.1" id="Layer_1" xmlns="http://www.w3.org/2000/svg" xmlns:xlink="http://www.w3.org/1999/xlink" x="0px" y="0px"
	 viewBox="0 0 1200 1200" enable-background="new 0 0 1200 1200" xml:space="preserve">
<g>
	<path d="M360.4,400.5c16.8,2.1-8.3-15.8,5.3-21c-5.8,10.5,1.2,21.7,15.7,17.5c13.4-11.8-3.1-26.6-15.7-22.7
		c-3.3-6.6,10.6-9.4,1.7-10.5c-11.9,13.7-12.8,38.5-29.7,47.2c21.4-10.2,48.2-2.5,61.2,10.5C394.1,406.3,375.8,404.9,360.4,400.5z"
		/>
	<path d="M733,335.7c-20.9-12.1-45.6-25.3-70-31.5c-95.6-24.2-197-1.7-255.4,47.2c-10.8-3.2-33.4-3.1-42,1.7c1.7,3.3-5.2,5.8,0,7
		c21.5-11.4,63.2-8.3,68.2,14c5.1,22.7-16.9,34.9-24.5,52.5c24.7-9.4,45.5-65.1,7-73.5c40-15.4,42.1,49.2,17.5,64.7
		c28.2-13.4,33.8-68.1-5.2-73.5c38.4-21.6,77.8-40.2,131.2-43.7c97.4-6.5,176.3,38.5,230.9,78.7C779.3,360.9,755.3,348.6,733,335.7z
		"/>
	<path d="M217,46v464.4c9.6,2.7,19.6,6.3,29.7,10.9c56.3,25.8,96.5,36.5,134.7,35.6c29.2-0.7,63.4-12.1,99.7-24.2
		c41.3-13.8,84-28,124.8-28c39.6,0,78.9,13.7,117,26.9c36.1,12.5,73.4,25.5,111,27c32.6,1.3,58.8-10.1,89.1-23.2
		c18.3-7.9,37.7-16.4,60.1-22.7V46H217z M822.2,414.4c-0.7,29.1-16.9,42.6-29.7,59.5c-8.3-18.7-26-31.8-29.7-57.7
		c-3.8-26.2,2.6-51.1-22.7-56c-4.1,5.3,2.9,14.5,7,17.5c-42.9,14.3-50.9-21.5-68.2-38.5c-15.3-0.1-27.3,3-43.7,1.7
		c-0.7-4.2,3.2-3.8,1.7-8.7c-11.8,11-9.3,36.2-21,47.2c-20.3-5.9-37.6-14.9-49-29.7c-5.6,4.6,6.7,6,5.2,12.2
		c-16.4,8.1-28.7,20.3-45.5,28c0.9-4.5,2.3-6.1-1.7-8.8c-2.1,17.2-10.7,27.7-12.2,45.5c-20.4-3.5-36.2-11.6-47.2-24.5
		c-6.7,3.5,8.9,8.3,3.5,10.5c-24.2,6.1-41.4,19.3-68.2,22.7c-14.3,11.3-24.3,27-45.5,31.5c-0.2-3.3-5.8-1.2-5.2-5.2
		c0.2-8.2,2.5,1.9,7,0c15-8.3,26.4-20.3,31.5-38.5c-11.5,1.5-19.3,30.7-33.2,29.7c-9-1.8,9.4-13.2,5.2-15.7c3.9-3.7,15.4,0.2,14-8.7
		c-4.7-4-27.2-2.1-35-1.8c3.1,6.3,12,6.7,19.2,8.7c-19.5,7-37.7-1.7-35-21c1.1-7.7,15.2-23.6,22.7-35c29.1-43.8,69.6-87.5,126-99.7
		c-11-2.8-26.1,5.4-36.7,8.7c15.9-21.4,31-43.7,47.2-64.7c29.2,1.7,45.6,16.2,66.5,26.2c-11.9,8.5-29.4,11.5-36.7,24.5
		c79.9-22,139.9,20,216.9,12.2c-1,7.4,1.3,11.6,1.8,17.5c-6.4-1.1-9.3,1.2-12.2,3.5c12.3,9.6,28.2,12,40.2,22.7
		c10.1,9,14.2,21,26.2,24.5c13.4,3.9,28.1-0.1,40.2,1.8c21.9,3.3,33.7,13,47.2,31.5C858.6,399.5,846.8,413.4,822.2,414.4z"/>
	<path d="M419.8,379.5c-8.2-1-12.6,8.5-8.7,14C417.8,392.5,420,387.2,419.8,379.5z"/>
	<path d="M838.9,594.3c-2.2,0-4.3,0-6.5-0.1c-42.9-1.7-82.7-15.5-121.3-28.9c-36.9-12.8-71.7-24.9-105.3-24.9
		c-35,0-74.9,13.3-113.5,26.2c-38.9,13-75.5,25.2-110.1,26c-43.9,1.1-88.9-10.6-150.4-38.8c-5-2.3-9.9-4.3-14.8-6v33.9
		c9.6,2.7,19.6,6.3,29.7,10.9c56.3,25.9,96.5,36.5,134.7,35.6c29.2-0.7,63.4-12.1,99.7-24.2c41.3-13.8,84-28,124.8-28
		c39.6,0,78.9,13.7,117,26.9c36.1,12.5,73.4,25.5,111,27c32.6,1.3,58.8-10.1,89.1-23.2c18.3-7.9,37.7-16.4,60.1-22.7v-34
		c-16.3,5.3-31.2,11.7-45.9,18.1C905.9,581.5,876.4,594.3,838.9,594.3z"/>
	<path d="M838.9,665.5c-2.2,0-4.3,0-6.5-0.1c-42.9-1.7-82.7-15.5-121.3-28.9c-36.9-12.8-71.7-24.9-105.3-24.9
		c-35,0-74.9,13.3-113.5,26.2c-38.9,13-75.5,25.2-110.1,26c-43.9,1.1-88.9-10.6-150.4-38.8c-5-2.3-9.9-4.3-14.8-6v227.3l381.6,307.5
		L983,846.4V621.1c-16.3,5.3-31.2,11.7-45.9,18.1C905.9,652.7,876.4,665.5,838.9,665.5z"/>
</g>
</svg>
