<?xml version="1.0" encoding="utf-8"?>
<!-- Generator: Adobe Illustrator 18.1.1, SVG Export Plug-In . SVG Version: 6.00 Build 0)  -->
<!DOCTYPE svg PUBLIC "-//W3C//DTD SVG 1.1//EN" "http://www.w3.org/Graphics/SVG/1.1/DTD/svg11.dtd">
<svg version="1.1" id="Layer_1" xmlns="http://www.w3.org/2000/svg" xmlns:xlink="http://www.w3.org/1999/xlink" x="0px" y="0px"
	 viewBox="0 0 1200 1200" enable-background="new 0 0 1200 1200" xml:space="preserve">
<g>
	<path d="M323.1,788.1c43.9-1,90.6-16.6,140-33.1c49.1-16.4,99.8-33.3,144.4-33.3c42.7,0,87,15.4,133.8,31.7
		c49,17,99.7,34.6,154.2,36.8c2.8,0.1,5.6,0.2,8.3,0.2c47.7,0,84.9-16.3,124.5-33.4c18.9-8.2,37.1-16.5,58.7-23.2v-47.3
		c-29.2,8-53.3,18.8-76.7,28.9c-38.6,16.7-71.8,31.2-113.2,29.6c-47.8-1.9-95.2-18.4-141-34.3c-48.4-16.8-98.4-34.2-148.7-34.2
		c-51.9,0-106.2,18.1-158.7,35.7c-46.1,15.4-89.6,29.9-126.7,30.8c-48.5,1.2-99.7-12.4-171.3-45.2c-12.8-5.9-25-10.4-37.7-13.8v47.6
		c5.1,2.1,12.5,4.5,18.8,7.4C210,774.6,267.2,789.4,323.1,788.1z"/>
	<path d="M1010.3,805.9c-38.6,16.7-71.8,31.2-113.2,29.6c-47.8-1.9-95.2-18.4-141-34.3c-48.4-16.8-98.4-34.2-148.7-34.2
		c-51.9,0-106.2,18.1-158.7,35.7c-46.1,15.4-89.6,29.9-126.7,30.8c-48.5,1.2-99.7-12.4-171.3-45.2c-12.8-5.9-25-10.4-37.7-13.8v47.6
		c5.1,2.1,12.5,4.5,18.8,7.4C210,865.3,267.2,880,323,878.7c43.9-1,90.6-16.6,140-33.1c49.1-16.4,99.8-33.3,144.4-33.3
		c42.7,0,87,15.4,133.9,31.7c49,17,99.7,34.6,154.2,36.8c2.8,0.1,5.6,0.2,8.3,0.2c47.7,0,84.9-16.3,124.5-33.4
		c18.9-8.2,37.1-16.5,58.7-23.2v-47.3C1057.8,784.9,1033.7,795.7,1010.3,805.9z"/>
	<g>
		<path d="M887,488.2c-15.5-2.3-34.2,2.7-51.2-2.2c-15.4-4.5-20.6-19.7-33.4-31.1c-15.3-13.7-35.6-16.7-51.2-28.9
			c3.7-3,7.5-5.9,15.6-4.5c-0.6-7.5-3.5-12.8-2.2-22.2c-98,9.8-174.2-43.5-275.8-15.6c9.4-16.6,31.6-20.3,46.7-31.1
			c-26.6-12.7-47.4-31.2-84.5-33.4c-20.7,26.8-39.9,55-60.1,82.3c13.6-4.3,32.8-14.6,46.7-11.1c-71.6,15.6-123.2,71.1-160.2,126.8
			c-9.6,14.5-27.5,34.7-28.9,44.5c-3.5,24.5,19.7,35.5,44.5,26.7c-9.3-2.6-20.6-3.2-24.5-11.1c9.9-0.5,38.5-2.9,44.5,2.2
			c1.8,11.4-12.9,6.4-17.8,11.1c5.3,3.2-18.1,17.8-6.7,20c17.8,1.3,27.6-35.9,42.3-37.8c-6.5,23.2-20.9,38.4-40,48.9
			c-5.7,2.4-8.6-10.4-8.9,0c-0.7,5.1,6.4,2.5,6.7,6.7c26.9-5.7,39.6-25.6,57.8-40c34.1-4.4,55.9-21.2,86.7-28.9
			c6.9-2.8-13-8.9-4.4-13.4c14,16.4,34.1,26.7,60.1,31.1c1.9-22.6,13-36,15.6-57.8c5.2,3.3,3.4,5.4,2.2,11.1
			c21.3-9.8,37-25.3,57.8-35.6c1.8-7.9-13.8-9.7-6.7-15.6c14.5,18.8,36.4,30.3,62.3,37.8c14.9-14,11.7-46.1,26.7-60.1
			c1.8,6.3-3.1,5.8-2.2,11.1c20.9,1.6,36.2-2.3,55.6-2.2c22.1,21.7,32.3,67.1,86.8,48.9c-5.2-3.8-14.1-15.5-8.9-22.2
			c32.2,6.2,24.1,37.8,28.9,71.2c4.8,33,27.3,49.6,37.8,73.4c16.4-21.5,37-38.7,37.8-75.6c31.3-1.3,46.3-19,64.5-33.4
			C929.8,504.7,914.8,492.3,887,488.2z M266.4,557.2c21.5-11.1,22.6-42.6,37.8-60.1c11.3,1.4-6.5,4.9-2.2,13.3
			c16.1-4.9,37.1,13.9,20,28.9c-18.5,5.3-27.4-8.9-20-22.2c-17.2,6.6,14.7,29.3-6.7,26.7c19.6,5.6,42.9,7.5,48.9,26.7
			C327.7,553.9,293.6,544.2,266.4,557.2z M548.9,417c-67.9,4.6-118.1,28.2-166.8,55.6c49.6,6.8,42.5,76.4,6.7,93.4
			c31.3-19.7,28.7-101.8-22.2-82.3c49,10.7,22.5,81.5-8.9,93.4c9.7-22.4,37.7-37.8,31.1-66.7c-6.4-28.3-59.4-32.3-86.7-17.8
			c-6.7-1.5,2.1-4.8,0-8.9c10.9-6.2,39.7-6.3,53.4-2.2c74.3-62.3,203.2-90.9,324.8-60.1c31,7.9,62.4,24.7,89,40
			c28.5,16.4,58.9,32.1,73.4,55.6C773,466,672.7,408.7,548.9,417z M370.9,517.1c0.2,9.9-2.6,16.6-11.1,17.8
			C354.9,527.9,360.5,515.9,370.9,517.1z"/>
	</g>
</g>
</svg>
